<svg id="Layer_1" data-name="Layer 1" xmlns="http://www.w3.org/2000/svg" xmlns:xlink="http://www.w3.org/1999/xlink" viewBox="0 0 841.89 841.89"><defs><style>.cls-1{fill:none;}.cls-2{fill:#422b02;}.cls-3{fill:#ff9100;}.cls-4{clip-path:url(#clip-path);}.cls-5{fill:#1e1e1e;}</style><clipPath id="clip-path"><path class="cls-1" d="M533.56,484.44,479.18,377.72,424.79,484.44l-11.87,23.19H545.44ZM508,482.85a.39.39,0,0,0-.61.12,9.17,9.17,0,0,1-.44,2.39c-.17.38-.37.73-.52,1.09s-.21.73-.33,1.08a4.08,4.08,0,0,1-.74,1.29,5.12,5.12,0,0,0-.54,1.19c-.15.38-.37.62-.78.57a2.31,2.31,0,0,0-1,.15c-.35.13-.73.32-1.09.1a1.09,1.09,0,0,1-.5-1.06c.05-.39.3-.89.12-1.27a1,1,0,0,1,.07-1c.39-.66,1-1.12.77-2a1.73,1.73,0,0,1,0-1.34c.07-.13.29-.15.27-.33s-.05-.25,0-.43c.35-.64,1.19-.64,1.77-1a3,3,0,0,0,1.09-1,1.65,1.65,0,0,1,.71-.81,1.4,1.4,0,0,0,.13.18c.48-.48-.2-.91.74-1.27l.17-.16a2.14,2.14,0,0,1,.68,1.68.69.69,0,0,0,0,.49c.08.12.21.2.26.34A.83.83,0,0,1,508,482.85Zm.42-22.11c-.17.89-1,1.5-1.14,2.38a2.5,2.5,0,0,1-.53,1.25,2.33,2.33,0,0,0-.51.85c-.17.46-.3,1.33-.93,1.4h.12a16.55,16.55,0,0,0-2,2.08,12.45,12.45,0,0,0-.89.89c-.26.38-.45.81-.73,1.17-.54.67-1.2,1.21-1.7,1.9-.36.52-.92,1.31-.66,2,.13.35.43.63.48,1s-.23,1,.1,1.42c.2.27.53.38.73.65.31.43.06,1,0,1.43-.1,1,.2,2-.28,2.93a3.88,3.88,0,0,1-1.76,1.37,15.72,15.72,0,0,0-2.37,1.77,2.29,2.29,0,0,0-1.07,1.47c-.08.77.17,1.56,0,2.36a1.75,1.75,0,0,1-.52,1c-.34.28-.82.3-1.12.63a2.23,2.23,0,0,0-.49,1.11c-.09.46,0,.92-.22,1.35a7.25,7.25,0,0,1-.86,1.06c-.33.39-.63.82-1,1.24a4.46,4.46,0,0,1-.95.94,7.26,7.26,0,0,1-1.24.54,5.86,5.86,0,0,0-1.11.58,1.82,1.82,0,0,1-1.32.3c-1-.13-1.87.44-2.86.48a2.74,2.74,0,0,1-1.75-1.09.94.94,0,0,1-.3-.85c.1-.33.25-.57,0-.9s-.45-.48-.63-.76c-.33-.47-.66-.93-1-1.41a4.17,4.17,0,0,1-.71-1.35c-.1-.46-.05-.94-.2-1.42a7.77,7.77,0,0,1-.3-1.37,3.05,3.05,0,0,0-.36-1.42,28.16,28.16,0,0,1-1.65-2.33,4.09,4.09,0,0,1-.28-2.71,8.51,8.51,0,0,1,.59-1.67h.05c.1-1.06,1.14-1.85.59-2.94a3,3,0,0,1-.48-1.34,2.84,2.84,0,0,0,0-.92,5.92,5.92,0,0,0-.43-.83,15.11,15.11,0,0,0-2.16-3,3.19,3.19,0,0,1-1-1.48,3.23,3.23,0,0,1,.44-1.57,4.15,4.15,0,0,1,.07-1.17,1.11,1.11,0,0,0-.4-.94,2.2,2.2,0,0,0-.92-.6c-.48-.15-1,0-1.49-.15a2.56,2.56,0,0,1-.81-.66,7.65,7.65,0,0,0-.79-.82.8.8,0,0,0-1-.05,3.17,3.17,0,0,1-1.31.49,8.46,8.46,0,0,0-1.32.22,4.93,4.93,0,0,1-1.45.38,10.87,10.87,0,0,1-1.27-.22,5.87,5.87,0,0,0-1.51,0,6.09,6.09,0,0,0-1.32.28,3,3,0,0,1-1.2.18,1.75,1.75,0,0,1-1-.51c-.35-.32-.53-.78-.84-1.12a6.73,6.73,0,0,0-.74-.58,2.46,2.46,0,0,1-.66-.81,9.35,9.35,0,0,0-.88-1.83c-.41-.53-.94-1-1.39-1.49a3.32,3.32,0,0,1-.71-1.69,8.16,8.16,0,0,0-.25-.94.85.85,0,0,1,.24-.79,8.05,8.05,0,0,0,.79-1.68,3.33,3.33,0,0,0,.16-.88c0-.33-.05-.64,0-1s.46-1.22-.2-1.37a3.75,3.75,0,0,1,1-2c.24-.33.51-.65.76-1s.38-.67.61-1a4.85,4.85,0,0,1,.86-.71,3.08,3.08,0,0,0,.79-.82,1.88,1.88,0,0,1,1-.65,3,3,0,0,0,1-.64,3.47,3.47,0,0,0,.78-.92,5.69,5.69,0,0,0,.23-1,2.47,2.47,0,0,1,1.47-1.6c.64-.3,1.27-.48,1.63-1.14.14-.25.2-.63.48-.73s.84,0,.83.41h0c.12.14.12.11.12.24s.18,0,.18.05a3.11,3.11,0,0,0,.5.05,1.17,1.17,0,0,0,.36,0,.6.6,0,0,1,.53-.12,1.81,1.81,0,0,1,.48-.16s0,0,0,.08a2.63,2.63,0,0,1,1-.23,4.13,4.13,0,0,1,2.06-.8s0,.05,0,.09c.41-.12.81.18,1.22.11s.45-.43.78-.18a.49.49,0,0,1,.54.17h.27a.69.69,0,0,0,.76-.3.41.41,0,0,1,.36-.07.51.51,0,0,1,.41,0,.6.6,0,0,1,.33.15c.19,0,.12,0,.22.08a.85.85,0,0,1,.73.48s.06,0,.08.11a.74.74,0,0,1-.13.48,1.39,1.39,0,0,0,.19.45.91.91,0,0,1,.24.4.43.43,0,0,1-.09.21.67.67,0,0,0-.08.3.46.46,0,0,0,.13.43,1.11,1.11,0,0,0,.17.11,2.09,2.09,0,0,0,.59.13c.27.07.53.17.79.24a4.68,4.68,0,0,0,.48.11c.15.05.3.08.43.13l.38.14.38.19a.7.7,0,0,1,.17.09s.2.08.2.1v.14c0-.08.13.1.13.1a.6.6,0,0,1,0,.3.8.8,0,0,0,.35.12,1.15,1.15,0,0,1,1.24.21c.38.13.91.3,1.17-.15s0-.71.13-1a1.53,1.53,0,0,1,1.82-.54,1.6,1.6,0,0,1,.07.33h.05s.06.21.06.25c.37,0,1-.12,1.21.11a1.78,1.78,0,0,1,.61.28,2.46,2.46,0,0,0,.66.23,13.2,13.2,0,0,0,1.59.4,2.21,2.21,0,0,0,1.43-.35c.56-.28.93-.05,1.49.07.73.16,1.32.26,1.65,1a3.55,3.55,0,0,1,.36,1.42c0,.52-.52.54-.87.79a9.19,9.19,0,0,0,.64,1.25,3,3,0,0,0,.83.81,1.33,1.33,0,0,1,.56.81c.07.32,0,.61.17.89.54.81,1.37,1.38,1.45,2.42,0,.18,0,.44.11.57s.55.33.73.63a9.13,9.13,0,0,0,.43.89c.28.33.71.51,1,.86s.41.63.63.93a3.08,3.08,0,0,0,1,.82,9.62,9.62,0,0,1,1,.84c.3.3.73.52.94.9a1.43,1.43,0,0,1,.17.49c0,.08-.05.18,0,.28.16.28.63.28.91.18s.72-.33,1.14-.44a10.69,10.69,0,0,1,1.18-.37,3.21,3.21,0,0,0,1.08-.09c.31-.15.53-.43.87-.48a0,0,0,0,1,0,0,2.34,2.34,0,0,1,.55.15l0,0c.14.15.29.21.34.4C508.31,459.34,508.53,460.23,508.43,460.74Z"/></clipPath></defs><path class="cls-2" d="M261.36,377.39V508.33l-23.38-18-84.17-64.91v82.87H130.42V377.76l23.39,18L238,460.63V377.2Z"/><path class="cls-2" d="M345.39,429.76l56.67,78.38h-28.8L328,445.66l-33.11,30.12v32.36H271.5V377.2h23.38v67l19.27-17.58,17.4-15.91L368,377.2h34.61Z"/><path class="cls-2" d="M664,485v23.38H597.63A40.76,40.76,0,0,1,579.3,504,41.52,41.52,0,0,1,560.41,485a40.66,40.66,0,0,1-4.3-18.33V377.39h23.38v91.47a18.65,18.65,0,0,0,15.9,15.9Z"/><path class="cls-2" d="M673.66,508.14V377.2H697V508.14Z"/><path class="cls-3" d="M534,484.77,479.18,377.21,424.37,484.77l-12,23.37H546Zm-25.75-1.6a.39.39,0,0,0-.62.12,9,9,0,0,1-.45,2.41c-.16.38-.36.73-.51,1.1s-.22.73-.34,1.08a4,4,0,0,1-.74,1.3,4.67,4.67,0,0,0-.55,1.2c-.15.38-.37.63-.79.58a2.31,2.31,0,0,0-1,.15,1.26,1.26,0,0,1-1.1.1,1.06,1.06,0,0,1-.5-1.07c0-.4.3-.9.11-1.28a1,1,0,0,1,.07-1c.4-.67,1.05-1.14.78-2a1.71,1.71,0,0,1,0-1.35c.06-.14.28-.15.26-.34s-.05-.25,0-.43c.35-.65,1.19-.65,1.78-1a3.08,3.08,0,0,0,1.1-1,1.65,1.65,0,0,1,.71-.81c0,.06.1.13.13.18.49-.48-.2-.91.75-1.28l.17-.17a2.13,2.13,0,0,1,.68,1.7.77.77,0,0,0,0,.5c.08.12.21.2.26.33A.86.86,0,0,1,508.24,483.17Zm.42-22.29c-.17.9-1,1.52-1.15,2.4a2.46,2.46,0,0,1-.54,1.26,2.33,2.33,0,0,0-.51.85c-.17.47-.3,1.35-.93,1.42h.11a17.42,17.42,0,0,0-2,2.09c-.28.3-.63.55-.9.9s-.45.82-.73,1.18c-.55.67-1.21,1.22-1.71,1.92-.37.51-.94,1.31-.67,2,.13.35.43.63.48,1s-.23,1,.1,1.43c.2.27.54.39.74.65.31.44.06,1,0,1.45-.1,1,.2,2.05-.28,2.95a4.08,4.08,0,0,1-1.78,1.38,15.37,15.37,0,0,0-2.38,1.78c-.48.4-1,.8-1.08,1.48s.16,1.58,0,2.38a1.73,1.73,0,0,1-.51,1c-.35.29-.84.3-1.14.64a2.19,2.19,0,0,0-.49,1.11c-.09.47,0,.93-.22,1.37a7.9,7.9,0,0,1-.87,1.06c-.33.4-.63.83-1,1.25a4.17,4.17,0,0,1-1,.95,7.87,7.87,0,0,1-1.25.55,6.54,6.54,0,0,0-1.11.58,1.8,1.8,0,0,1-1.33.3c-1-.13-1.88.45-2.88.48a2.7,2.7,0,0,1-1.77-1.1.91.91,0,0,1-.3-.85c.1-.33.25-.58,0-.91s-.45-.48-.64-.77c-.33-.46-.66-.93-1-1.41a4.16,4.16,0,0,1-.71-1.37c-.1-.46-.05-.95-.2-1.43a6.91,6.91,0,0,1-.3-1.38,3.14,3.14,0,0,0-.37-1.43,27,27,0,0,1-1.66-2.35,4.14,4.14,0,0,1-.29-2.73,9.35,9.35,0,0,1,.6-1.68h.05c.1-1.06,1.15-1.86.6-3a3,3,0,0,1-.48-1.35,2.89,2.89,0,0,0,0-.93,6.51,6.51,0,0,0-.44-.83,15.4,15.4,0,0,0-2.18-3.07,2,2,0,0,1-.6-3.08,4.24,4.24,0,0,1,.07-1.18,1.16,1.16,0,0,0-.4-.95,2.3,2.3,0,0,0-.93-.6c-.48-.15-1,0-1.5-.15a2.46,2.46,0,0,1-.81-.66,10.45,10.45,0,0,0-.8-.83.83.83,0,0,0-1-.05,3.22,3.22,0,0,1-1.31.5,8.38,8.38,0,0,0-1.33.21,4.78,4.78,0,0,1-1.47.39,11.42,11.42,0,0,1-1.28-.22,5.87,5.87,0,0,0-1.51,0,6.06,6.06,0,0,0-1.33.28,3.15,3.15,0,0,1-1.22.18,1.75,1.75,0,0,1-1-.51c-.35-.32-.53-.79-.85-1.14a7.13,7.13,0,0,0-.75-.58,2.62,2.62,0,0,1-.67-.81,8.27,8.27,0,0,0-.88-1.85c-.41-.53-1-1-1.4-1.5a3.35,3.35,0,0,1-.71-1.7c-.05-.33-.17-.61-.25-1a.86.86,0,0,1,.23-.8,7.48,7.48,0,0,0,.8-1.69,3.42,3.42,0,0,0,.17-.89c0-.33-.05-.64,0-1s.47-1.23-.2-1.38a3.82,3.82,0,0,1,1-2c.25-.34.51-.65.76-1a11.51,11.51,0,0,1,.62-1,4.51,4.51,0,0,1,.86-.72,3,3,0,0,0,.8-.83,2,2,0,0,1,1-.65,3.06,3.06,0,0,0,1-.65,3.36,3.36,0,0,0,.78-.93,4.66,4.66,0,0,0,.24-1,2.49,2.49,0,0,1,1.48-1.62c.65-.3,1.28-.48,1.64-1.15.14-.25.2-.63.49-.73s.85,0,.83.42c0,0,0,0,0,0s.11.12.11.25.19,0,.19.05a3.09,3.09,0,0,0,.49.05,1.63,1.63,0,0,0,.37,0,.63.63,0,0,1,.53-.11,2.17,2.17,0,0,1,.49-.17s0,0,0,.08a2.89,2.89,0,0,1,1-.23,4.2,4.2,0,0,1,2.08-.8.11.11,0,0,0,0,.08c.42-.11.82.19,1.23.12s.45-.43.79-.18a.52.52,0,0,1,.55.16h.26a.67.67,0,0,0,.77-.3.42.42,0,0,1,.36-.06.49.49,0,0,1,.42,0,.6.6,0,0,1,.33.15c.19,0,.12,0,.22.09a.82.82,0,0,1,.73.48c.05.05.07.05.08.12a.64.64,0,0,1-.13.48,1.41,1.41,0,0,0,.2.45c.08.12.22.25.23.4a.49.49,0,0,1-.08.21.67.67,0,0,0-.08.3.47.47,0,0,0,.13.44,1.11,1.11,0,0,0,.17.11,2.61,2.61,0,0,0,.6.14c.26.06.53.16.8.23l.48.12c.15.05.3.08.43.13a2.84,2.84,0,0,0,.38.13c.14.07.25.14.39.2a.65.65,0,0,1,.16.09.62.62,0,0,1,.2.1v.15c0-.09.14.1.14.1a.57.57,0,0,1,0,.29.69.69,0,0,0,.35.12,1.17,1.17,0,0,1,1.25.22c.38.13.92.3,1.18-.15s0-.72.14-1.05a1.52,1.52,0,0,1,1.83-.55,3.23,3.23,0,0,1,.06.33h.05s.07.22.07.25c.37,0,1-.11,1.21.12a1.74,1.74,0,0,1,.62.28,2.8,2.8,0,0,0,.67.24,11.9,11.9,0,0,0,1.59.39,2.26,2.26,0,0,0,1.45-.34c.57-.29.93-.05,1.5.06.73.17,1.33.27,1.66,1a3.45,3.45,0,0,1,.37,1.43c0,.53-.53.55-.88.8a8.83,8.83,0,0,0,.65,1.26,3.08,3.08,0,0,0,.83.82,1.28,1.28,0,0,1,.57.81c.06.32,0,.62.16.9.55.82,1.38,1.38,1.47,2.43,0,.19,0,.45.11.59s.55.33.74.63a8.22,8.22,0,0,0,.43.9c.28.33.71.51,1,.86s.41.63.63.93a3.29,3.29,0,0,0,1,.84,9.67,9.67,0,0,1,1,.85c.3.29.73.51,1,.89a1.33,1.33,0,0,1,.16.5c0,.09-.05.19,0,.29.17.28.64.28.92.18s.73-.33,1.15-.45a11.57,11.57,0,0,1,1.19-.37c.37-.05.75.07,1.09-.1s.53-.43.88-.48a0,0,0,0,1,0,0,1.54,1.54,0,0,1,.54.15h.05c.14.15.29.22.34.4C508.54,459.47,508.75,460.37,508.66,460.88Z"/><g class="cls-4"><path d="M503.22,509.75a2.84,2.84,0,0,1-2.08-1.06l-6.73-7.21a3.23,3.23,0,0,1-1.16-2.24,3.3,3.3,0,0,1,1.17-2l7.46-7.57a2.6,2.6,0,0,1,1.5-.91c.89-.08,1.55.63,2.08,1.2l.14.14c.64.67,1.26,1.37,1.87,2.05s1.16,1.3,1.76,1.93,1,1,1.43,1.48l1.1,1.15.42.41a6.77,6.77,0,0,1,.93,1,2.09,2.09,0,0,1,.42,1.43,3.36,3.36,0,0,1-.93,1.72,50.17,50.17,0,0,1-7.35,7.66A3.32,3.32,0,0,1,503.22,509.75Zm.29-20.48h-.09a2.1,2.1,0,0,0-1.16.76l-7.46,7.57a2.76,2.76,0,0,0-1,1.66,2.79,2.79,0,0,0,1,1.85l6.73,7.21c1.07,1.15,2.09,1.2,3.39.18a50.63,50.63,0,0,0,7.27-7.59,2.92,2.92,0,0,0,.81-1.44,1.51,1.51,0,0,0-.33-1.06h0a6.18,6.18,0,0,0-.86-.92l-.43-.43-1.11-1.14c-.47-.49-1-1-1.43-1.49s-1.2-1.3-1.77-1.95-1.23-1.37-1.86-2l-.14-.15C504.62,489.82,504.11,489.27,503.51,489.27Z"/><path d="M503.6,506.08h-.13a2.28,2.28,0,0,1-1.17-.62,32.78,32.78,0,0,1-5-4.76,1.83,1.83,0,0,1,.16-2.78l4.65-4.34a2.23,2.23,0,0,1,1.52-.77,2.21,2.21,0,0,1,1.36.78l4.89,4.81a1.8,1.8,0,0,1,.61,1,1.86,1.86,0,0,1-.8,1.43l-.09.09-1.33,1.21c-.41.36-.83.74-1.24,1.13l-1,.92-.74.72-.26.26a3.82,3.82,0,0,1-.66.61h0A1.44,1.44,0,0,1,503.6,506.08Zm0-12.75a1.8,1.8,0,0,0-1.09.63l-4.65,4.34a1.31,1.31,0,0,0-.11,2.06,32.71,32.71,0,0,0,4.88,4.68,1.91,1.91,0,0,0,.88.5.87.87,0,0,0,.62-.2h0a3.7,3.7,0,0,0,.59-.54l.27-.28.74-.71,1-.93,1.26-1.14c.43-.39.88-.79,1.31-1.2l.1-.09c.31-.29.66-.62.63-1a1.29,1.29,0,0,0-.46-.69L504.65,494a1.68,1.68,0,0,0-1-.63Z"/><path d="M506,499.17a.5.5,0,0,1,.1.33.84.84,0,0,1-.23.42,13.68,13.68,0,0,1-1.93,2,.65.65,0,0,1-1-.06L501.14,500a.59.59,0,0,1,0-1l2-2a.6.6,0,0,1,.35-.22c.22,0,.39.19.53.33.33.35.64.71,1,1.06l.67.69A3.06,3.06,0,0,1,506,499.17Z"/><path d="M539.18,509.39H539a3.49,3.49,0,0,1-1.73-.92,51.2,51.2,0,0,1-7.66-7.36c-1.19-1.51-1.11-2.86.23-4.11l7.21-6.73a2.53,2.53,0,0,1,4.25,0l7.57,7.47a2.54,2.54,0,0,1,.91,1.49,2.72,2.72,0,0,1-1.19,2.09l-.14.13c-.68.64-1.38,1.27-2,1.87s-1.3,1.16-1.93,1.76L543,506.51l-1.14,1.11c-.14.12-.27.27-.41.41a6.77,6.77,0,0,1-1,.93A2.14,2.14,0,0,1,539.18,509.39Zm0-19.75a2.94,2.94,0,0,0-1.79,1l-7.21,6.73c-1.14,1.07-1.2,2.09-.17,3.39a50.16,50.16,0,0,0,7.58,7.28,3,3,0,0,0,1.44.8,1.52,1.52,0,0,0,1.07-.33h0a6.67,6.67,0,0,0,.92-.85l.43-.44,1.14-1.11,1.49-1.43c.64-.6,1.3-1.19,1.94-1.77s1.37-1.22,2-1.86l.15-.13c.5-.48,1.08-1,1-1.65a2.1,2.1,0,0,0-.75-1.16l-7.57-7.47a2.8,2.8,0,0,0-1.67-1Z"/><path d="M539,506.39a1.94,1.94,0,0,1-1.32-.81l-.09-.09c-.41-.43-.82-.88-1.21-1.32s-.75-.84-1.13-1.25l-.92-.95-.72-.74a3.38,3.38,0,0,0-.27-.26,4.78,4.78,0,0,1-.6-.67,1.38,1.38,0,0,1-.29-1,2.27,2.27,0,0,1,.61-1.16,32.8,32.8,0,0,1,4.76-5,1.83,1.83,0,0,1,2.79.15l4.34,4.66a2.21,2.21,0,0,1,.77,1.51,2.16,2.16,0,0,1-.78,1.36l-4.82,4.89a1.69,1.69,0,0,1-1,.61Zm.19-13.23a1.77,1.77,0,0,0-1,.46,32.25,32.25,0,0,0-4.68,4.88,1.79,1.79,0,0,0-.49.88.92.92,0,0,0,.19.62h0a5.81,5.81,0,0,0,.54.58,3.83,3.83,0,0,1,.29.28l.71.73.93,1c.39.41.77.84,1.14,1.25s.79.89,1.2,1.31l.09.1c.29.31.62.67,1,.63a1.23,1.23,0,0,0,.69-.46l4.82-4.88a1.22,1.22,0,0,0,0-2.14l-4.34-4.65A1.45,1.45,0,0,0,539.18,493.16Z"/><path d="M539.34,501.84a.49.49,0,0,1-.33.09.78.78,0,0,1-.42-.22,13.74,13.74,0,0,1-2-1.94.65.65,0,0,1,0-1l1.91-1.78a.61.61,0,0,1,1,0l2,2a.56.56,0,0,1,.22.35c0,.22-.18.4-.33.53-.34.33-.71.64-1.05,1l-.7.68C539.59,501.59,539.47,501.74,539.34,501.84Z"/><path d="M536.06,486a1,1,0,0,1-.33.55q-3.32,3.09-6.59,6.25c-1.11,1.06-2.22,2.14-3.3,3.23-.56.56-1.11,1.13-1.66,1.7s-1,.79-.4,1.43c.82.9,1.66,1.78,2.5,2.67l5,5.36,3.19,3.43a3.82,3.82,0,0,1,1,1.53,1.33,1.33,0,0,1-.64,1.58c-.73.28-1.46-.39-2-1a127.44,127.44,0,0,0-9.42-9.89l-1.21-1.13c-.39-.35-.68-.83-1.24-.49a15.41,15.41,0,0,0-2.52,2.46c-1.67,1.67-3.29,3.37-4.91,5.08-1,1-2,2.11-3,3.15a4.47,4.47,0,0,1-2,1.41,1.54,1.54,0,0,1-1.91-1.12,2.26,2.26,0,0,1,.87-1.61c3.53-3.57,6.75-7.6,10.76-10.66a2.39,2.39,0,0,0,.69-.69c.42-.78-.47-1.16-.92-1.6l-1.05-1-8.45-8.24a3.61,3.61,0,0,1-1.36-2.16c0-.69.46-1.72,1.23-1.77s1.31.73,1.77,1.18l8.3,8.16c.68.66,1.37,1.31,2,2,.3.3.67.9,1.2.79.82-.17,1.33-1.06,1.85-1.64.69-.79,1.41-1.56,2.14-2.31,2-2.07,4.18-4,6.29-5.94,1-.94,2.34-1.95,3.61-1.43C536,485.43,536.12,485.72,536.06,486Z"/><path d="M515.94,514.08h-.35a2.17,2.17,0,0,0-.36,0H515a3.76,3.76,0,0,1-1.52-.15.59.59,0,0,1-.42-.42c-.08-.35.19-.7.43-1s.76-.84,1.13-1.26c.72-.8,1.47-1.64,2.23-2.43a51.08,51.08,0,0,1,4.37-4.08.59.59,0,0,1,.94.05c.75.82,1.54,1.64,2.3,2.44,1.62,1.69,3.3,3.44,4.82,5.26a.73.73,0,0,1,.13.92h0a.6.6,0,0,1-.5.22l-2.14.11a3.41,3.41,0,0,1-1.09-.08,3.23,3.23,0,0,1-1.46-1.22l-2.62-3.35c0-.05-.17-.2-.24-.2s-.17.11-.22.15a52.63,52.63,0,0,0-3.73,4.15v0a3.18,3.18,0,0,1-.66.66A1.56,1.56,0,0,1,515.94,514.08Zm-.65-.56h.33a1.51,1.51,0,0,0,.87-.1,2.33,2.33,0,0,0,.53-.55h0a50.14,50.14,0,0,1,3.77-4.19.89.89,0,0,1,.6-.32.92.92,0,0,1,.66.41l2.62,3.35a1.93,1.93,0,0,0,2.1,1.09l2.14-.1a.33.33,0,0,0,.11,0s0-.13-.12-.25c-1.51-1.8-3.18-3.55-4.79-5.23-.77-.8-1.55-1.63-2.32-2.45a.6.6,0,0,0-.08-.08l-.12.09a48.37,48.37,0,0,0-4.32,4c-.76.79-1.5,1.62-2.22,2.42l-1.13,1.26c-.33.36-.31.48-.31.48h0a.16.16,0,0,0,.09,0,3.55,3.55,0,0,0,1.31.12h.27Zm13.75-.44Z"/><path d="M520.93,493.8h-.08a.67.67,0,0,1-.39-.24c-.76-.82-1.55-1.64-2.31-2.44-1.62-1.69-3.29-3.44-4.82-5.26a.74.74,0,0,1-.13-.93h0a.68.68,0,0,1,.51-.21l2.14-.11a3.37,3.37,0,0,1,1.08.08,3.13,3.13,0,0,1,1.46,1.22l2.63,3.34c0,.06.16.21.23.21s.18-.11.22-.16a47.44,47.44,0,0,0,3.73-4.15h0a2.76,2.76,0,0,1,.66-.66,2,2,0,0,1,1.18-.19h.55a3.76,3.76,0,0,1,1.52.15.58.58,0,0,1,.42.42c.09.34-.18.7-.43,1L528,487.08c-.72.81-1.47,1.64-2.23,2.44a49.42,49.42,0,0,1-4.37,4.07A.73.73,0,0,1,520.93,493.8Zm-7.31-8.54a.46.46,0,0,0,.12.25c1.51,1.8,3.18,3.54,4.8,5.23.76.8,1.55,1.63,2.31,2.45l.08.08.12-.09a51.51,51.51,0,0,0,4.33-4c.75-.79,1.49-1.62,2.21-2.42.38-.42.76-.85,1.14-1.26s.3-.48.3-.49h0a.22.22,0,0,0-.08,0,3.4,3.4,0,0,0-1.32-.12h-.2l-.4,0a1.56,1.56,0,0,0-.86.11,2.31,2.31,0,0,0-.54.54v0a51.78,51.78,0,0,1-3.77,4.19.87.87,0,0,1-.6.32.86.86,0,0,1-.65-.42L518,486.23a2.65,2.65,0,0,0-1.2-1,2.69,2.69,0,0,0-.9-.05l-2.14.1C513.66,485.24,513.63,485.25,513.62,485.26Zm-.21-.17Z"/><path d="M555.37,478.32h-.08a2.18,2.18,0,0,1-3.49-.15l-2.26,0c1,5,7.6,4.79,8.79.06Z"/><path d="M553.36,472.38a4.26,4.26,0,0,0-3.94,3.79l2.32,0a2.15,2.15,0,0,1,3.77.14l2.85-.11A4.82,4.82,0,0,0,553.36,472.38Z"/><path d="M554.89,470.86c6.88,1.11,6.82,11.23,0,12.4,0,.41,0,.82,0,1.23,8.44-1.25,8.42-13.77-.08-14.87C554.86,470,554.87,470.44,554.89,470.86Z"/><path d="M549.26,483.07a7.31,7.31,0,0,0,3.69,1.45c0-.41,0-.81,0-1.22-6.92-.72-6.85-11.47,0-12.45,0-.41,0-.82,0-1.23C546.51,470.24,544.21,479.5,549.26,483.07Z"/><path d="M601.29,475.57a.21.21,0,0,1,0,.08,2.18,2.18,0,0,1-.15,3.49c0,.75,0,1.5,0,2.26,5-1,4.79-7.6,0-8.79Z"/><path d="M595.35,477.58a4.26,4.26,0,0,0,3.79,3.94l0-2.32a2.14,2.14,0,0,1,.15-3.77c-.05-.95-.08-1.9-.12-2.85A4.82,4.82,0,0,0,595.35,477.58Z"/><path d="M593.83,476.05c1.11-6.88,11.23-6.82,12.4,0l1.23,0c-1.24-8.44-13.77-8.42-14.87.08Z"/><path d="M606.05,481.68A7.5,7.5,0,0,0,607.5,478l-1.23,0c-.72,6.92-11.47,6.85-12.45,0l-1.23.05C593.22,484.44,602.47,486.73,606.05,481.68Z"/><path d="M558.34,457.12a25.32,25.32,0,0,0,4.47,6.86c1.08,1,4.79-5,5.48-6,8.25,8.07,3.68,7.56,9.73-.56q2.73,3.38,5.11,7c.21.32.72.57,1,.21a50.73,50.73,0,0,0,5.31-7,58.79,58.79,0,0,0,6,6.26c.43.37.83,0,1-.41,1.12-2.41,2.8-4.56,4.1-6.88.45-4.42-4.21,4.16-4.81,4.84-9-9-4-9.1-11.94.34-1.48-2.2-3-4.34-4.73-6.42-.57-.71-1.09-.31-1.33.33a21.48,21.48,0,0,0-3.76,5.39c-8.1-8.82-4.07-7.13-10.73.17a25.88,25.88,0,0,1-3.43-5.45C559.07,454.16,557.88,456.05,558.34,457.12Z"/><path d="M451.53,471.63c.42,1.54,3.3,4.18,5,4.72.71.54,7.12-7.08,7.7-7.43,3.13-2.75-1.75-5.91-4.13-7.47h0c-.19,0-.52,0-3.34,3.14-1.36,1.49-2.76,3.12-3,3.43C452.85,469,451.25,470.1,451.53,471.63Zm2.66-3.2a71.17,71.17,0,0,1,5.86-6.3c1.84,1.53,6.38,3.87,3.71,6.35l-6.64,7c-.19.19-.3.28-.48.28-1.43-.47-4.14-3-4.49-4.22S453.47,469.29,454.19,468.43Z"/><path d="M454.19,468.43a71.17,71.17,0,0,1,5.86-6.3c1.84,1.53,6.38,3.87,3.71,6.35l-6.64,7c-.19.19-.3.28-.48.28-1.43-.47-4.14-3-4.49-4.22S453.47,469.29,454.19,468.43Z"/><path d="M460.05,480c.15-.11,5.9,5.21,6.21,5.45.59.75,1.73.37,2.36-.38,1.08-1.15,2.44-2.34,3-3.85-1.82-2.83-4.76-5.05-7.11-7.47A2.13,2.13,0,0,0,463,473a3.63,3.63,0,0,0-2.16,1.17h0C457.83,477,457.07,478.23,460.05,480Zm1.25-5.32a4.14,4.14,0,0,1,1.47-1c1.48-.24,6.78,6.13,8.19,7.48-.81,1.36-2.34,3.45-3.78,4.06-.15.29-5.74-5.12-6-5.21-.63-.56-2.33-1.34-2.43-2.1C458.73,477.6,459,476.75,461.3,474.66Z"/><path d="M461.3,474.66a4.14,4.14,0,0,1,1.47-1c1.48-.24,6.78,6.13,8.19,7.48-.81,1.36-2.34,3.45-3.78,4.06-.15.29-5.74-5.12-6-5.21-.63-.56-2.33-1.34-2.43-2.1C458.73,477.6,459,476.75,461.3,474.66Z"/><path d="M473.14,479.67c.2,0,.53,0,3.35-3.14,1.36-1.49,2.76-3.12,3-3.43.85-1,2.45-2.07,2.17-3.6s-3.48-4.42-5.11-4.73c-.44-.54-7.16,7.19-7.58,7.44C465.85,474.93,470.74,478.19,473.14,479.67Zm-3.71-7c.23,0,7-7.7,7.18-7.24,1.51.65,4,2.85,4.44,4.22.22,1.15-1.33,2.21-2,3.07a71.17,71.17,0,0,1-5.86,6.3C471.3,477.47,466.77,475.13,469.43,472.65Z"/><path d="M469.43,472.65c.23,0,7-7.7,7.18-7.24,1.51.65,4,2.85,4.44,4.22.22,1.15-1.33,2.21-2,3.07a71.17,71.17,0,0,1-5.86,6.3C471.3,477.47,466.77,475.13,469.43,472.65Z"/><path d="M461.85,460.49c1.57,1.39,7,8.25,8.73,7.57,1.89-.65,4.81-4.14,4.48-4.91-.08-.82-1.09-1.47-1.91-2-1.3-.6-5.72-5.62-7.14-5.88C465.08,455.1,460.66,459.75,461.85,460.49Zm4.66-4.32,5.5,4.94c.63.56,2.32,1.34,2.42,2.1a.06.06,0,0,1,0,0c0,.36-.36,1.22-2.55,3.22a3.21,3.21,0,0,1-1.73,1,1.54,1.54,0,0,1-1-.54c-2.37-2.22-4.75-4.54-6.91-7C462.64,459.16,465.64,454.93,466.51,456.17Z"/><path d="M462.24,460c.4-.8,3.4-5,4.27-3.79l5.5,4.94c.63.56,2.32,1.34,2.42,2.1a.06.06,0,0,1,0,0c0,.36-.36,1.22-2.55,3.22a3.21,3.21,0,0,1-1.73,1,1.54,1.54,0,0,1-1-.54C466.78,464.72,464.4,462.4,462.24,460Z"/><path d="M410.66,478.45a51.06,51.06,0,0,0,4.24,3.72,21.16,21.16,0,0,1,4.28,4.12c1.48,1.89,4.32-2.51,5.23-3.87h0c.95-1.37-1.82-2.8-2.53-3.81a52.48,52.48,0,0,1-4.86-5.13,1.68,1.68,0,0,0-1.3-.83c-2.18.54-3.64,2.62-5.18,4.13A1.1,1.1,0,0,0,410.66,478.45Zm.35-1.26c1-.88,4.47-5.36,5.52-3.31a98.52,98.52,0,0,0,7.24,7.49.51.51,0,0,1,.23.38.63.63,0,0,1-.14.34,11,11,0,0,1-3.78,4.09c-2.6-3-6.08-5.35-9-8.17C410.8,477.71,410.7,477.49,411,477.19Z"/><path d="M411,477.19c1-.88,4.47-5.36,5.52-3.31a98.52,98.52,0,0,0,7.24,7.49.51.51,0,0,1,.23.38.63.63,0,0,1-.14.34,11,11,0,0,1-3.78,4.09c-2.6-3-6.08-5.35-9-8.17C410.8,477.71,410.7,477.49,411,477.19Z"/><path d="M404.49,472.38c1,.88,3.32,4.33,4.47,4.14,1-.4,1.62-1.61,2.42-2.27a52.66,52.66,0,0,0,4.05-4.58c2.32-2.27.34-3.21-1.62-4.66-.59-.4-.84-1.51-1.69-1.53a2.43,2.43,0,0,0-1.43.82c-2.07,1.92-4.25,4-6.25,6.22A1.24,1.24,0,0,0,404.49,472.38Zm6.63-7.62c.57-.47,1-1.12,1.6-.05.83,1.25,2.52,1.71,3.2,3.07a4.42,4.42,0,0,1-1,1.48,73.77,73.77,0,0,1-5.45,6c-.78,1.2-1.25.27-2-.52-.89-1.16-2.29-2.1-2.89-3.4A64.35,64.35,0,0,1,411.12,464.76Z"/><path d="M404.64,471.37a64.35,64.35,0,0,1,6.48-6.61c.57-.47,1-1.12,1.6-.05.83,1.25,2.52,1.71,3.2,3.07a4.42,4.42,0,0,1-1,1.48,73.77,73.77,0,0,1-5.45,6c-.78,1.2-1.25.27-2-.52C406.64,473.61,405.24,472.67,404.64,471.37Z"/><path d="M421.86,475.15c.85,1.44,2.91,4.69,4.9,4,.95-.41,1.59-1.57,2.25-2.36,1.66-1.9,3.42-3.75,5.24-5.49a.32.32,0,0,0,0-.42c-1.2-1.41-2.93-4-4.6-4.69-.32-.34-7.09,6.64-7.42,6.82a1.65,1.65,0,0,0-.65,1.31A1.31,1.31,0,0,0,421.86,475.15Zm.84-1.65,6.72-6.47c.44-.86,3.74,3.53,4.19,4a65.34,65.34,0,0,0-5.61,6,4.54,4.54,0,0,1-1.49,1.5l-.24,0c-1.51,0-3.16-2.58-3.85-3.77A.93.93,0,0,1,422.7,473.5Z"/><path d="M422.7,473.5l6.72-6.47c.44-.86,3.74,3.53,4.19,4a65.34,65.34,0,0,0-5.61,6,4.54,4.54,0,0,1-1.49,1.5l-.24,0c-1.51,0-3.16-2.58-3.85-3.77A.93.93,0,0,1,422.7,473.5Z"/><path d="M414.84,463.66a70.71,70.71,0,0,1,6.17,5.69,1.87,1.87,0,0,0,1.43.76,1.33,1.33,0,0,0,1.05-.51c6.62-6.07,5.81-4.71-.65-10-1.29-1.17-2.22-3-3.95-3.55-.41-.2-3.89,3.82-4.23,4A2.05,2.05,0,0,0,414.84,463.66Zm.28-3.1,3.62-3.73s.11-.11.14-.11c1.42.7,2.36,2.26,3.52,3.36,6,5.11,7.07,3.12.67,9.05-.56.61-1.06.38-1.6-.22a71.79,71.79,0,0,0-6.22-5.74C414.08,462.41,414.11,461.42,415.12,460.56Z"/><path d="M415.12,460.56l3.62-3.73s.11-.11.14-.11c1.42.7,2.36,2.26,3.52,3.36,6,5.11,7.07,3.12.67,9.05-.56.61-1.06.38-1.6-.22a71.79,71.79,0,0,0-6.22-5.74C414.08,462.41,414.11,461.42,415.12,460.56Z"/><path d="M425.61,488.25c5.81-4.74,11.81-9.69,17.74-14.2,5.63,4.32,11.09,9.17,16.68,13.63.51.41,1.22.66,1.38,1.36,0,.95-1.2,1-1.85.65-2.17-.92-3.69-2.87-5.33-4.56a51.5,51.5,0,0,0-10.62-8c-4.82,2.38-8.77,6.47-13.33,9.38-1.44,1-3.52,2.74-5.17,3.34C423.48,490.17,425,488.55,425.61,488.25Z"/><path d="M443.22,480.69c.71,0,1.17.65,1.64,1.05l4.21,3.49,5.73,4.71c.31.26-.09.76-.41.49-2.84-2.34-5.7-4.68-8.53-7a28.53,28.53,0,0,0-2.55-2.07c-.42-.1-1.07.57-1.41.93a59.77,59.77,0,0,1-7,5.74c-.68.3-3.11,2.79-3.53,2.28s2.68-2.25,3.15-2.79a62,62,0,0,0,6.7-5.48C441.77,481.5,442.43,480.7,443.22,480.69Z"/><path d="M438.63,490c-1.89-.9,1.12-2.85,1.86-3.65a13.43,13.43,0,0,0,2.35-2.6c1-.75,2.47,1.67,2.88,2.25,3,3.55,3.35,4.37-1.61,4.16A31.12,31.12,0,0,1,438.63,490Z"/><path d="M444.54,466.31a2,2,0,0,1-3,0c-5.64-4.43-11.89-8.37-17.22-13.06-.07-.52.62-.81,1.17-.81,2,0,3.6,1.66,5,3.1a49,49,0,0,0,7.9,6.65c1.48.94,3.05,2.08,4.83,2.34,4.85-3.49,9.47-7.52,14.6-10.77.43-.29,2.9-2.29,3.39-2,.78.53-1.48,2.06-1.73,2.27Z"/><path d="M453.83,451.55c2-.1-9.58,8.57-9.26,8.65a3.44,3.44,0,0,1-4.93.21c-3.29-2.28-6.08-5.51-8.89-8.29a.32.32,0,0,1,.46-.45C444.56,465.35,440.53,461.69,453.83,451.55Z"/><path d="M443.14,457.53c-.49.7-1.37,1.05-2,.36a16.33,16.33,0,0,1-2.68-2.52c-.63-.78-2.33-2.55-1.29-3.59s3.1,0,4.26,0C449.09,451.4,446.8,453.11,443.14,457.53Z"/><path d="M524.67,464.86a12.75,12.75,0,0,1,12.73-12.74.68.68,0,0,1,0,1.36A11.39,11.39,0,0,0,526,464.86a11.58,11.58,0,0,0,7.51,10.71,11.29,11.29,0,0,0,3.87.67.68.68,0,0,1,0,1.36,12.79,12.79,0,0,1-4.34-.76A12.94,12.94,0,0,1,524.67,464.86Z"/><path d="M530.73,464.51a6.22,6.22,0,0,1,.08-1,6.31,6.31,0,0,1,2.36-3.9,7,7,0,0,1,9.44,1.11,6.56,6.56,0,0,1,.87,1.32,6.74,6.74,0,0,1,.67,3.59,6.14,6.14,0,0,1-9.61,5,8,8,0,0,1-3-3A6.68,6.68,0,0,1,530.73,464.51Zm12.77.55a6.07,6.07,0,0,0-.63-2.68h0a5.55,5.55,0,0,0-.78-1.19,6.28,6.28,0,0,0-8.5-1,5.56,5.56,0,0,0-2.11,3.47,5.78,5.78,0,0,0,.69,3.72,7.26,7.26,0,0,0,2.71,2.74,6,6,0,0,0,3.88.93c2.68-.39,4.5-3.07,4.71-5.44A5.07,5.07,0,0,0,543.5,465.06Zm-.32-2.83Z"/><path d="M540.34,462.08a4.1,4.1,0,0,0-5.3-.18,4,4,0,0,0-.26,5.92,4,4,0,0,0,6.71-3.62A3.83,3.83,0,0,0,540.34,462.08Z"/><path d="M504.47,476.92a.68.68,0,0,1,.68-.68,11.29,11.29,0,0,0,3.87-.67,11.58,11.58,0,0,0,7.51-10.71,11.39,11.39,0,0,0-11.38-11.38.68.68,0,0,1,0-1.36,12.75,12.75,0,0,1,12.73,12.74,12.94,12.94,0,0,1-8.39,12,12.79,12.79,0,0,1-4.34.76A.67.67,0,0,1,504.47,476.92Z"/><path d="M498.48,465a8.54,8.54,0,0,1,.27-2.11,6.14,6.14,0,0,1,10.35-3.24,6.75,6.75,0,0,1,2.07,3h0a6.46,6.46,0,0,1,.32,1.56,7,7,0,0,1-5.89,7.45,6.28,6.28,0,0,1-4.43-1.09,6.52,6.52,0,0,1-2.4-3.48A7.72,7.72,0,0,1,498.48,465Zm12.36-.22c0-.17,0-.34,0-.51a6,6,0,0,0-.29-1.39h0a6.12,6.12,0,0,0-1.86-2.71c-1.82-1.52-5-2.13-7.18-.51a6,6,0,0,0-2.08,3.4,7.28,7.28,0,0,0,0,3.85,5.77,5.77,0,0,0,2.15,3.12,5.55,5.55,0,0,0,3.94,1A6.28,6.28,0,0,0,510.84,464.79Zm0-2Z"/><path d="M509.3,464.54a4.12,4.12,0,0,1-3.62,3.89,4,4,0,0,1-4.37-4,4,4,0,0,1,7.3-2.18A3.75,3.75,0,0,1,509.3,464.54Z"/><path d="M525.82,464l-2.07,0-8.34,0a3.19,3.19,0,0,0-1.27.18c-.38.17-.66.55-.5.88s.85.49,1.39.49l12.65.1a1.7,1.7,0,0,0,1.2-.3c.73-.77-.28-1.35-1-1.39S526.49,464,525.82,464Z"/><path d="M362.62,471.21a.61.61,0,0,1-.61-.61,17.24,17.24,0,0,0-1-5.88,17.55,17.55,0,0,0-16.24-11.38,17.28,17.28,0,0,0-17.26,17.26.61.61,0,0,1-.61.61.61.61,0,0,1-.61-.61,18.49,18.49,0,0,1,18.48-18.47,18.78,18.78,0,0,1,17.38,12.18,18.38,18.38,0,0,1,1.1,6.29A.61.61,0,0,1,362.62,471.21Z"/><path d="M344.8,465a6.09,6.09,0,0,1,5.75,5.37,5.9,5.9,0,0,1-5.94,6.48A5.94,5.94,0,0,1,341.38,466,5.62,5.62,0,0,1,344.8,465Z"/><path d="M345,480.28a12.62,12.62,0,0,1-3.08-.39,9.68,9.68,0,0,1-5.47-3.39,8.62,8.62,0,0,1-1.54-5.93,10.33,10.33,0,0,1,2.32-5.7,9.82,9.82,0,0,1,4.37-3h0a9.76,9.76,0,0,1,2.26-.46A10.12,10.12,0,0,1,354.66,470a9.13,9.13,0,0,1-1.58,6.43,9.46,9.46,0,0,1-5.05,3.48A11.14,11.14,0,0,1,345,480.28Zm-3.2-17.84a9.11,9.11,0,0,0-4.1,2.82c-2.31,2.76-3.22,7.58-.76,10.88A9.08,9.08,0,0,0,342,479.3a11,11,0,0,0,5.82,0,8.83,8.83,0,0,0,4.73-3.25,8.5,8.5,0,0,0,1.47-6,9.52,9.52,0,0,0-10.18-8,8.9,8.9,0,0,0-2.11.44Z"/><path d="M436.81,503.74c1.28.87,2.6,2.14.86,3.37-1.27,1.05-2.71,2.33-4,3.3-1.91,1.39-3.84,2.75-5.8,4.06-.44.4-1,0-1.05-.53-1.16-3.5,10.54-7.49,7.31-8.92-1.64-1.08-9.09-5.61-7.08-7.78.44-.32.89.06,1.28.31A93.89,93.89,0,0,1,436.81,503.74Z"/><path d="M447.09,503.74c1.29.87,2.6,2.14.86,3.37-1.27,1.05-2.71,2.33-4,3.3-1.9,1.39-3.83,2.75-5.79,4.06-.45.4-1,0-1.05-.53-1.17-3.5,10.53-7.49,7.31-8.92-1.64-1.08-9.1-5.61-7.09-7.78.45-.32.89.06,1.29.31A92.37,92.37,0,0,1,447.09,503.74Z"/><path d="M457.37,503.74c1.29.87,2.61,2.14.87,3.37-1.27,1.05-2.71,2.33-4,3.3-1.91,1.39-3.84,2.75-5.8,4.06-.44.4-1,0-1-.53-1.16-3.5,10.54-7.49,7.31-8.92-1.64-1.08-9.09-5.61-7.08-7.78.44-.32.89.06,1.28.31A92.37,92.37,0,0,1,457.37,503.74Z"/><path class="cls-1" d="M392.7,486.78c-5.72.22-11.45.11-17.17.1-1.7,0-3.41,0-5.11-.1q2.7,4.49,5.56,8.87h11.16Q390,491.27,392.7,486.78Z"/><path class="cls-1" d="M382.19,513.08q5.44-8,10.46-16.29a41,41,0,0,0-4.84.14c-2.15,2.6-3.82,5.7-6.07,8.28-.53.67-.8,0-1-.55a15.83,15.83,0,0,0-2.41-3.56c-3.37-4.58-1.86-4.42-7.85-4.33,3.53,5.63,6.94,11.44,10.82,16.81C381.78,514,381.88,513.53,382.19,513.08Z"/><path class="cls-5" d="M387.91,506.54q3.15-4.73,6-9.61c.15-.26.31-.6.13-.84-1.65-.64-3.7-.35-5.48-.47q2.67-4.29,5.36-8.58c.58-.73-.18-1.28-1-1.23q-11.42-.26-22.83,0c-.51,0-1.18.18-1.2.69a42.55,42.55,0,0,0,2.69,4.51l2.88,4.62c-1.78.15-3.87-.23-5.48.52-.28.35,0,.86.22,1.23l11.8,17.84C381.9,516.52,387,507.51,387.91,506.54ZM376,495.65q-2.87-4.38-5.56-8.87c1.7.13,3.41.09,5.11.1,5.72,0,11.45.12,17.17-.1q-2.7,4.49-5.56,8.87Zm5.31,17.93c-3.88-5.37-7.29-11.18-10.82-16.81,6-.09,4.48-.25,7.85,4.33a15.83,15.83,0,0,1,2.41,3.56c.21.51.48,1.22,1,.55,2.25-2.58,3.92-5.68,6.07-8.28a41,41,0,0,1,4.84-.14q-5,8.28-10.46,16.29C381.88,513.53,381.78,514,381.29,513.58Z"/><path class="cls-1" d="M373.1,466.57h1.6c.46-.52,2.65-3.58,4.43-6.07l2.15-3a.35.35,0,0,1,.28-.14.34.34,0,0,1,.26.17c.47.9,2.56,3.61,3.94,5.4l.75,1c.07.09.21.3.41.6a15.84,15.84,0,0,0,1.71,2.34c1.08.07,2,.11,3,.08-2.17-3.42-7.31-10.84-9.9-14.06-1.69,2.19-3.44,4.59-5.13,6.91s-3.37,4.63-5,6.79C372,466.59,372.54,466.58,373.1,466.57Z"/><path class="cls-1" d="M381.38,463.3c-2.59,3.23-7.74,10.66-9.9,14.08a8.22,8.22,0,0,0,3-.2,101.11,101.11,0,0,0,6.76-9.2.32.32,0,0,1,.28-.17.33.33,0,0,1,.28.16,85.86,85.86,0,0,0,6.07,9c.55,0,1.16,0,1.74,0s1.38,0,1.92,0c-1.67-2.16-3.38-4.51-5-6.78S383.08,465.49,381.38,463.3Z"/><path d="M381.73,474.77c-1.88.15-3.64,2.46-2.64,4.13a2.65,2.65,0,0,0,4.81.22C384.86,477.46,384,474.59,381.73,474.77Z"/><path d="M387,469.84c-1.78-2.44-3.61-5-5.4-7.25a.33.33,0,0,0-.24-.12.3.3,0,0,0-.25.12c-2.78,3.38-8.66,12-10.49,14.91a.31.31,0,0,0,0,.31.3.3,0,0,0,.26.17l.39,0a8.61,8.61,0,0,0,3.47-.24c.62-.26,5.47-7,6.77-9,1.18,2,2.83,4.46,3.52,5.45,2.39,3.45,2.55,3.45,2.73,3.44h1.85a22.23,22.23,0,0,0,2.57-.06.32.32,0,0,0,.26-.19.5.5,0,0,0,0-.12.31.31,0,0,0-.07-.2C390.64,474.8,388.8,472.28,387,469.84Zm2.6,7.17c-.58,0-1.19,0-1.74,0a85.86,85.86,0,0,1-6.07-9,.33.33,0,0,0-.28-.16.32.32,0,0,0-.28.17,101.11,101.11,0,0,1-6.76,9.2,8.22,8.22,0,0,1-3,.2c2.16-3.42,7.31-10.85,9.9-14.08,1.7,2.19,3.44,4.59,5.14,6.92s3.36,4.62,5,6.78C391,477,390.33,477,389.63,477Z"/><path d="M370.88,467.15a17.45,17.45,0,0,0,2.23.06c.55,0,1.11,0,1.69,0,.28,0,.31,0,4.85-6.34l1.87-2.6c.74,1.16,2.45,3.38,3.74,5.05l.75,1c.06.07.2.3.38.56,1.33,2,1.79,2.59,2.16,2.62a29.51,29.51,0,0,0,3.63.07.32.32,0,0,0,.26-.17.28.28,0,0,0,0-.15.34.34,0,0,0-.05-.17c-1.83-2.94-7.71-11.52-10.48-14.91a.36.36,0,0,0-.25-.11.3.3,0,0,0-.25.12c-1.78,2.28-3.62,4.81-5.4,7.25s-3.6,4.95-5.38,7.23a.32.32,0,0,0,.21.51Zm5.69-7.37c1.69-2.32,3.44-4.72,5.13-6.91,2.59,3.22,7.73,10.64,9.9,14.06-1,0-1.89,0-3-.08a15.84,15.84,0,0,1-1.71-2.34c-.2-.3-.34-.51-.41-.6l-.75-1c-1.38-1.79-3.47-4.5-3.94-5.4a.34.34,0,0,0-.26-.17.35.35,0,0,0-.28.14l-2.15,3c-1.78,2.49-4,5.55-4.43,6.07h-1.6c-.56,0-1.09,0-1.57,0C373.2,464.41,374.91,462.06,376.57,459.78Z"/><path d="M345.25,507.93a3.49,3.49,0,0,1,3,1.71,5,5,0,0,1,.15,5,4.26,4.26,0,0,1-4,2.21,4,4,0,0,1-3.5-2.53,3.68,3.68,0,0,1,0-3.58,5.15,5.15,0,0,1,4-2.79Zm-.54,7.67a3,3,0,0,0,2.61-1.59h0a3.76,3.76,0,0,0-.13-3.7,2.23,2.23,0,0,0-2.14-1.11,3.93,3.93,0,0,0-2.95,2.12,2.47,2.47,0,0,0-.05,2.39l0,.08a2.81,2.81,0,0,0,2.44,1.8Zm3.16-1.28h0Z"/><path d="M344.75,485.86c4.71,8.13,9.34,17.67,14,25.8-1.34.23-3.85,0-5.8.1-.25,0-5.69-9.41-8.24-15.57-.76,2-8.44,15.45-9.13,15.83-1.28.72-3.48.45-4.91.35C333.24,506.86,341.23,491.64,344.75,485.86Z"/><path d="M572.09,504a0,0,0,0,0,0,0,.52.52,0,0,0-.35-.12c-.68,0-1.13.55-1.45,1.06-.46.74-1,1.6-1.6,2.45a1.18,1.18,0,0,1-.57.5c-.57.17-1.14-.79-1.78-2-.13-.23-.24-.44-.31-.53-.72-1-1.48-1.43-2.31-1.25-.15,0-.26.09-.27.16s.08.18.12.24c1.33,1.69,2.71,3.38,4.11,5,.11.13.26.27.38.27h0a.49.49,0,0,0,.19-.19l.5-.63c.55-.67,1.46-1.79,2.18-2.82,1.17-1.66,1.16-2.09,1.13-2.18Z"/><path d="M580.39,491.83c-.61,0-1,.64-1.44,1.2l-.24.34c-.51.68-1,1.44-1.56,2.33a.51.51,0,0,1-.24.22.46.46,0,0,1-.55-.19,7,7,0,0,1-.49-.67c-.72-1-2.23-3.2-3.19-3.2h0a.6.6,0,0,0-.52.34c0,.08.18.34.27.43l.11.14c.48.61,1,1.23,1.46,1.83s1,1.2,1.5,1.8l.26.29c.3.33.76.83,1,1.14l0,0,0,0,4-5.73a.22.22,0,0,0,.06-.17A1.37,1.37,0,0,0,580.39,491.83Z"/><path d="M581.57,505.57c.9,1.33,1.87,2.68,2.87,4a.67.67,0,0,0,.19.19c.13,0,.3-.12.42-.27,1.4-1.64,2.78-3.33,4.11-5,.05-.06.13-.17.12-.24s-.12-.13-.27-.16a1.77,1.77,0,0,0-1.36.27,3.84,3.84,0,0,0-.95,1.19c-.05.09-.1.18-.16.27a14.71,14.71,0,0,1-1.33,1.81.63.63,0,0,1-.48.27h0a.57.57,0,0,1-.46-.3l-.71-1c-.49-.67-1-1.35-1.44-2.06s-.69-.81-1-.72a1.28,1.28,0,0,1-.27,0,.62.62,0,0,0-.26.06l0,0c-.05.08.11.29.19.39l.07.09c.16.22.31.46.46.68Z"/><path d="M604.6,512.67c-.53-.9-1.25-1.66-1.79-2.55s-1.2-2-1.8-3.05q-2.06-3.46-4.1-6.93l-8.2-13.86-5-8.46c-1.62-2.74-3.24-5.47-5-8.1-.48-.69-1.22-1.45-2-1.24-.77-.21-1.51.55-2,1.24-1.79,2.63-3.41,5.36-5,8.1s-3.34,5.64-5,8.46q-4.11,6.93-8.2,13.86l-4.1,6.93c-.6,1-1.19,2-1.8,3.05s-1.26,1.65-1.8,2.55c-.15.27-.28.66-.12.89a.47.47,0,0,0,.1.1.63.63,0,0,0,.47.05c.89-.21,1.37-1.12,1.78-1.94,1.4-2.8,3.18-5.42,4.79-8.11a84.46,84.46,0,0,1,4.76-7.34c2.74-3.68,4-6.41,6.14-10.19,2.58-3.63,5.19-7.3,7.4-11.17.39-.69,1.45-3.49,2.59-3.83,1.15.34,2.2,3.14,2.6,3.83,2.21,3.87,4.82,7.54,7.4,11.17,2.17,3.78,3.39,6.51,6.13,10.19a84.56,84.56,0,0,1,4.77,7.34c1.6,2.69,3.39,5.31,4.79,8.11.4.82.89,1.73,1.78,1.94a.63.63,0,0,0,.47-.05l.1-.1C604.89,513.33,604.76,512.94,604.6,512.67Z"/><path d="M578.46,478l-1.09-1.56c-.2-.27-.47-.67-.86-.49a1.23,1.23,0,0,0-.48.48c-2.15,3.15-4.29,6.3-6.39,9.47-.42.64-2,2.42-.31,2.49q7,.27,14.1.2c1.69,0-.26-3.27-.6-3.87C581.5,482.37,580,480.15,578.46,478Z"/><path d="M559.93,500.28c-.21,0-.49.05-.51.25s.12.25.25.32c1.83,1.11,4,.62,6,.56,2.49-.07,5,.18,7.47.27,3.46.12,6.92,0,10.38-.1,1.72,0,3.45-.06,5.18,0A8.73,8.73,0,0,0,592,501c1.22-.5-.66-.82-1-.85-.65,0-1.29-.07-1.94-.09-4-.11-8.15.21-12.19.26q-7.46.09-14.92,0Z"/><path d="M596,511.9c-7.07.09-14.14.22-21.22.27-3.53,0-7.07,0-10.6,0s-6.92-.3-10.35-.12c-.82,0-1.67.41-1.79.78s.19.5,1.05.64a26.6,26.6,0,0,0,3.1.15c2.92.13,5.85.1,8.77.1,3.6,0,7.2-.09,10.8-.2,7.19-.2,14.4-.47,21.59-.18.65,0,3.62.06,3.4-.8S596.82,511.89,596,511.9Z"/><path d="M582,497.79a.24.24,0,0,0,.06.09.72.72,0,0,0,.47.18,1.94,1.94,0,0,0,1.63-1.16c.51-.83,1-1.64,1.59-2.44a1,1,0,0,1,.47-.42c.6-.19,1.57,2,1.87,2.42a2.49,2.49,0,0,0,2.52,1.33c.18,0,.39-.14.42-.32a.54.54,0,0,0-.17-.39c-1.33-1.71-2.71-3.38-4.11-5-.16-.19-.39-.4-.63-.32a.7.7,0,0,0-.29.25C585.39,492.6,581.69,496.89,582,497.79Z"/><path d="M580.38,491.44h0c-.81,0-1.33.76-1.75,1.37l-.23.32c-.52.7-1,1.47-1.58,2.37l-.06.06h0l-.08-.08c-.1-.11-.26-.35-.47-.64-1.14-1.64-2.45-3.39-3.53-3.37a1,1,0,0,0-.84.52c-.21.33.12.69.31.91l.1.11c.48.61,1,1.23,1.46,1.83s1,1.21,1.5,1.81l.27.3,1,1.13a.45.45,0,0,0,.35.16.46.46,0,0,0,.34-.19l4-5.73a.54.54,0,0,0,.09-.56h0C581.13,491.45,580.4,491.44,580.38,491.44Zm.47.66-4,5.73,0,0,0,0c-.26-.31-.72-.81-1-1.14l-.26-.29c-.5-.6-1-1.2-1.5-1.8s-1-1.22-1.46-1.83l-.11-.14c-.09-.09-.32-.35-.27-.43a.6.6,0,0,1,.52-.34h0c1,0,2.47,2.16,3.19,3.2a7,7,0,0,0,.49.67.46.46,0,0,0,.55.19.51.51,0,0,0,.24-.22c.54-.89,1.05-1.65,1.56-2.33L579,493c.39-.56.83-1.19,1.44-1.2a1.37,1.37,0,0,1,.52.1A.22.22,0,0,1,580.85,492.1Z"/><path d="M566.89,491.73c-.24-.08-.46.13-.63.32-1.4,1.65-2.77,3.32-4.11,5a.49.49,0,0,0-.16.39c0,.18.23.28.42.32a1.92,1.92,0,0,0,1.51-.31,4.76,4.76,0,0,0,1.17-1.5,14.41,14.41,0,0,1,1.31-1.79c.23-.27.45-.27.66,0,.71,1,1.48,2,2.14,3,.24.38.68,1,1.19.8.18-.06.43,0,.59-.14l.08-.08c.14-.22-.14-.52-.26-.69-.26-.36-.5-.74-.75-1.1-.93-1.37-1.89-2.71-2.87-4A.64.64,0,0,0,566.89,491.73Z"/><path d="M558,505.18q-.75.88-1.5,1.8c-.49.6-1,1.21-1.46,1.83-.14.18-.56.54-.39.79s.73.2,1,.19a1.36,1.36,0,0,0,1.44-.84,24.43,24.43,0,0,1,2.1-2.86c.08-.09.18-.2.33-.13a.4.4,0,0,1,.15.14,22.82,22.82,0,0,0,2.16,3,3.8,3.8,0,0,0,.71.68,1.47,1.47,0,0,0,.8.29.45.45,0,0,0,.43-.21.39.39,0,0,0-.08-.37l-4-5.73a.24.24,0,0,0-.38,0C558.9,504.19,558.1,505.06,558,505.18Z"/><path d="M589.94,509.79a1.36,1.36,0,0,0,1.44-.84,24.43,24.43,0,0,1,2.1-2.86c.08-.09.18-.2.33-.13a.4.4,0,0,1,.15.14,22.82,22.82,0,0,0,2.16,3,3.8,3.8,0,0,0,.71.68,1.47,1.47,0,0,0,.8.29.45.45,0,0,0,.43-.21.39.39,0,0,0-.08-.37l-4-5.73a.24.24,0,0,0-.38,0c-.38.45-1.18,1.32-1.28,1.44q-.75.88-1.5,1.8c-.49.6-1,1.21-1.46,1.83-.14.18-.56.54-.39.79S589.69,509.8,589.94,509.79Z"/><path d="M572.46,503.84a.46.46,0,0,0-.11-.16.88.88,0,0,0-.6-.23h-.08A2.17,2.17,0,0,0,570,504.7c-.46.73-1,1.59-1.58,2.42a.9.9,0,0,1-.37.36s-.18,0-.58-.52c-.27-.38-.53-.87-.75-1.26s-.25-.46-.33-.58c-.83-1.16-1.71-1.62-2.72-1.4a.65.65,0,0,0-.57.48.71.71,0,0,0,.21.54c1.33,1.7,2.72,3.39,4.11,5,.11.13.44.52.84.39a.84.84,0,0,0,.38-.33l.49-.61C571.29,506.5,572.7,504.55,572.46,503.84Zm-1.5,2.31c-.72,1-1.63,2.15-2.18,2.82l-.5.63a.49.49,0,0,1-.19.19h0c-.12,0-.27-.14-.38-.27-1.4-1.64-2.78-3.33-4.11-5,0-.06-.13-.17-.12-.24s.12-.13.27-.16c.83-.18,1.59.23,2.31,1.25.07.09.18.3.31.53.64,1.18,1.21,2.14,1.78,2a1.18,1.18,0,0,0,.57-.5c.6-.85,1.14-1.71,1.6-2.45.32-.51.77-1.1,1.45-1.06a.52.52,0,0,1,.35.12,0,0,0,0,1,0,0h0C572.12,504.06,572.13,504.49,571,506.15Z"/><path d="M572.49,510.07c.85,0,1.37-1,1.83-1.62a28.14,28.14,0,0,0,1.56-2.35A.36.36,0,0,1,576,506c.15-.07.24,0,.33.13.59.7,3.33,5.37,4.52,3.51.16-.25-.26-.61-.4-.79-.48-.62-1-1.23-1.46-1.83s-1-1.21-1.5-1.8c-.1-.12-.9-1-1.27-1.44a.25.25,0,0,0-.39,0l-4,5.73a.36.36,0,0,0-.07.37C571.84,510,572.28,510.07,572.49,510.07Z"/><path d="M581.25,505.79c.91,1.33,1.87,2.69,2.88,4a.84.84,0,0,0,.38.33c.4.13.73-.26.84-.39,1.4-1.64,2.78-3.33,4.11-5a.71.71,0,0,0,.21-.54.65.65,0,0,0-.57-.48,2.14,2.14,0,0,0-1.68.34,3.89,3.89,0,0,0-1,1.3l-.16.26a14.06,14.06,0,0,1-1.3,1.77.34.34,0,0,1-.18.13.37.37,0,0,1-.16-.14l-.72-1c-.48-.66-1-1.34-1.42-2-.16-.24-.59-.92-1.18-.92a.67.67,0,0,0-.24,0,1,1,0,0,1-.19,0,.88.88,0,0,0-.45.14l-.13.13h0c-.19.3.06.64.21.84l.06.07.46.68Zm-.49-1.41c-.08-.1-.24-.31-.19-.39l0,0a.62.62,0,0,1,.26-.06,1.28,1.28,0,0,0,.27,0c.28-.09.6.15,1,.72s.95,1.39,1.44,2.06l.71,1a.57.57,0,0,0,.46.3h0a.63.63,0,0,0,.48-.27,14.71,14.71,0,0,0,1.33-1.81c.06-.09.11-.18.16-.27a3.84,3.84,0,0,1,.95-1.19,1.77,1.77,0,0,1,1.36-.27c.15,0,.26.09.27.16s-.07.18-.12.24c-1.33,1.69-2.71,3.38-4.11,5-.12.15-.29.31-.42.27a.67.67,0,0,1-.19-.19c-1-1.35-2-2.7-2.87-4l-.28-.42c-.15-.22-.3-.46-.46-.68Z"/><path d="M478.23,508.27c-.05,1,2.79,1,2.72,0-.07-2.08,1.23-5.64-2.37-5.5C475,503.22,478.25,506.35,478.23,508.27Z"/><path d="M469.65,505.44a13.53,13.53,0,0,1,.5,2.92c-.09,1.19,3.38,1.19,3.31,0,0-2.12,2.41-5-1.26-5.8C469.65,502.35,468.83,503.7,469.65,505.44Z"/><path d="M463.62,508.35c.09.85,3.35.87,3.19-.24-.37-2.09.77-5.48-2.71-5.31C460.64,503.21,463.3,506.42,463.62,508.35Z"/><path d="M419.71,503.8c.58,2.27-.68,5.85,3.18,5,1.94-.52,1-1.64.76-2.34a25.16,25.16,0,0,1-.74-2.63C423,502.65,419.6,502.66,419.71,503.8Z"/><path d="M412.17,508.75c2.15,1.31,4.41-.2,3.83-2.63a22.21,22.21,0,0,0-.21-2.93c0-.6-2-.93-2.3-.17C413,504.48,410.65,507.54,412.17,508.75Z"/><path d="M405.14,508.42c.11.79,3.4.86,2.88-.44-1-2,1.42-5-2.22-5.21C402,503.05,404.22,506.43,405.14,508.42Z"/><path d="M509.09,436a2.86,2.86,0,0,1-2.08-1.07l-6.73-7.21a3.23,3.23,0,0,1-1.16-2.24,3.28,3.28,0,0,1,1.17-2l7.46-7.58a2.59,2.59,0,0,1,1.5-.9c.89-.09,1.55.62,2.08,1.19l.14.14c.64.67,1.26,1.37,1.87,2.05s1.16,1.3,1.76,1.93l1.42,1.49q.57.57,1.11,1.14l.42.41a6.7,6.7,0,0,1,.92,1,2.05,2.05,0,0,1,.43,1.43,3.36,3.36,0,0,1-.93,1.72,50.24,50.24,0,0,1-7.35,7.67A3.34,3.34,0,0,1,509.09,436Zm.29-20.49h-.09a2.08,2.08,0,0,0-1.16.75l-7.46,7.57a2.75,2.75,0,0,0-1,1.67,2.79,2.79,0,0,0,1,1.84l6.73,7.21c1.07,1.15,2.08,1.2,3.39.18a50.63,50.63,0,0,0,7.27-7.59,3,3,0,0,0,.81-1.44,1.56,1.56,0,0,0-.33-1.06h0a6.18,6.18,0,0,0-.86-.92c-.15-.15-.3-.29-.43-.43l-1.11-1.14c-.47-.49-1-1-1.43-1.49s-1.2-1.3-1.77-1.94-1.23-1.38-1.86-2l-.14-.15C510.49,416,510,415.49,509.38,415.49Z"/><path d="M509.47,432.3h-.14a2.29,2.29,0,0,1-1.16-.62,32.78,32.78,0,0,1-5-4.76,1.83,1.83,0,0,1,.16-2.78l4.65-4.34a2.23,2.23,0,0,1,1.51-.77,2.21,2.21,0,0,1,1.37.78l4.88,4.81a1.76,1.76,0,0,1,.62,1c.06.62-.44,1.08-.8,1.42l-.09.09c-.44.41-.89.82-1.33,1.21l-1.24,1.13-1,.92-.74.72-.26.26a3.82,3.82,0,0,1-.66.61h0A1.44,1.44,0,0,1,509.47,432.3Zm0-12.75a1.8,1.8,0,0,0-1.09.63l-4.66,4.34a1.31,1.31,0,0,0-.1,2.06,32.21,32.21,0,0,0,4.88,4.68,1.91,1.91,0,0,0,.88.5.9.9,0,0,0,.62-.19h0a4.22,4.22,0,0,0,.58-.54l.28-.29.74-.71,1-.93c.41-.39.84-.77,1.26-1.14s.88-.79,1.31-1.2l.1-.09c.31-.29.66-.62.63-1a1.28,1.28,0,0,0-.46-.7l-4.89-4.81a1.75,1.75,0,0,0-1-.63Z"/><path d="M511.85,425.39a.5.5,0,0,1,.1.33.87.87,0,0,1-.23.42,13.25,13.25,0,0,1-1.94,2,.64.64,0,0,1-1-.05L507,426.2a.83.83,0,0,1-.29-.54.79.79,0,0,1,.29-.49l2-2a.66.66,0,0,1,.35-.22c.22,0,.39.19.53.34.33.34.63.7,1,1.05s.45.46.67.7A4,4,0,0,1,511.85,425.39Z"/><path d="M545,435.61h-.19a3.3,3.3,0,0,1-1.73-.92,51.63,51.63,0,0,1-7.66-7.35c-1.19-1.52-1.12-2.86.23-4.12l7.21-6.73a3.26,3.26,0,0,1,2.23-1.15,3.18,3.18,0,0,1,2,1.17l7.57,7.46a2.57,2.57,0,0,1,.91,1.49,2.72,2.72,0,0,1-1.19,2.09l-.14.13c-.68.64-1.38,1.27-2,1.87s-1.3,1.17-1.93,1.76l-1.49,1.43-1.14,1.11c-.14.13-.27.27-.41.42a7.36,7.36,0,0,1-1,.92A2.09,2.09,0,0,1,545,435.61Zm0-19.75a2.94,2.94,0,0,0-1.79,1l-7.21,6.73c-1.15,1.07-1.2,2.09-.17,3.4a50.58,50.58,0,0,0,7.58,7.27,3,3,0,0,0,1.44.8,1.49,1.49,0,0,0,1.07-.33h0a6.62,6.62,0,0,0,.92-.85c.15-.16.28-.3.43-.44l1.14-1.1,1.49-1.44c.64-.6,1.3-1.19,1.94-1.76s1.37-1.23,2-1.86l.14-.14c.51-.48,1.09-1,1-1.65a2.1,2.1,0,0,0-.75-1.16l-7.58-7.46a2.77,2.77,0,0,0-1.66-1Z"/><path d="M544.86,432.61a2,2,0,0,1-1.32-.8l-.09-.1c-.41-.43-.82-.88-1.21-1.32s-.75-.84-1.13-1.24-.62-.65-.93-1-.47-.49-.71-.74a3.38,3.38,0,0,0-.27-.26,6.36,6.36,0,0,1-.61-.66,1.39,1.39,0,0,1-.28-1,2.24,2.24,0,0,1,.61-1.16,32.8,32.8,0,0,1,4.76-5,1.83,1.83,0,0,1,2.79.16l4.34,4.65a2.21,2.21,0,0,1,.77,1.51,2.18,2.18,0,0,1-.78,1.36L546,432a1.75,1.75,0,0,1-1,.62Zm.19-13.22a1.75,1.75,0,0,0-1,.45,32.73,32.73,0,0,0-4.68,4.88,1.84,1.84,0,0,0-.49.88.87.87,0,0,0,.19.62h0a4.83,4.83,0,0,0,.54.58l.29.28c.23.25.47.49.71.74s.62.63.92,1,.78.84,1.15,1.25.79.89,1.2,1.32l.09.09c.29.31.62.67,1,.63a1.29,1.29,0,0,0,.69-.45l4.82-4.89a1.22,1.22,0,0,0,0-2.14l-4.34-4.65A1.44,1.44,0,0,0,545.05,419.39Z"/><path d="M545.2,428.06a.47.47,0,0,1-.33.1.84.84,0,0,1-.41-.23,12.8,12.8,0,0,1-2-1.94.64.64,0,0,1,0-1l1.91-1.79a.8.8,0,0,1,.54-.28.81.81,0,0,1,.49.29l2,2a.6.6,0,0,1,.22.35c0,.23-.18.4-.33.54-.34.32-.71.63-1.05,1l-.7.67A3.11,3.11,0,0,1,545.2,428.06Z"/><path d="M541.93,412.25a1.08,1.08,0,0,1-.33.55c-2.21,2.06-4.41,4.15-6.59,6.24-1.11,1.06-2.22,2.14-3.3,3.23-.56.56-1.11,1.13-1.66,1.7s-1,.79-.4,1.43c.82.9,1.66,1.78,2.49,2.68l5,5.35,3.19,3.43a3.82,3.82,0,0,1,1,1.53,1.33,1.33,0,0,1-.64,1.58c-.73.28-1.46-.39-2-1a127.44,127.44,0,0,0-9.42-9.89L528.1,428c-.39-.36-.68-.84-1.24-.5a15.82,15.82,0,0,0-2.52,2.46c-1.67,1.67-3.29,3.38-4.92,5.08-1,1.05-2,2.11-3,3.15a4.32,4.32,0,0,1-2,1.41,1.53,1.53,0,0,1-1.91-1.12,2.26,2.26,0,0,1,.87-1.61c3.53-3.57,6.75-7.6,10.76-10.66a2.27,2.27,0,0,0,.69-.69c.42-.77-.47-1.16-.92-1.6l-1.06-1-8.44-8.24a3.61,3.61,0,0,1-1.36-2.16c0-.68.46-1.72,1.23-1.77s1.31.73,1.77,1.18l8.3,8.16c.68.66,1.37,1.32,2,2,.31.31.68.9,1.21.79.82-.17,1.33-1.06,1.85-1.64.69-.79,1.41-1.56,2.14-2.31,2-2.07,4.18-4,6.29-5.94,1-.94,2.34-1.95,3.61-1.43A.67.67,0,0,1,541.93,412.25Z"/><path d="M521.81,440.3h-.35a2.22,2.22,0,0,0-.36,0h-.19a3.76,3.76,0,0,1-1.52-.15.58.58,0,0,1-.42-.42c-.08-.34.19-.7.43-1s.76-.83,1.13-1.26c.72-.8,1.47-1.63,2.23-2.43a49.42,49.42,0,0,1,4.37-4.07.68.68,0,0,1,.54-.21.73.73,0,0,1,.39.25c.76.82,1.55,1.64,2.31,2.44,1.62,1.69,3.3,3.44,4.82,5.26a.73.73,0,0,1,.13.92h0a.62.62,0,0,1-.5.22l-2.15.11a3.37,3.37,0,0,1-1.08-.08,3.18,3.18,0,0,1-1.46-1.22l-2.62-3.34c0-.06-.17-.21-.24-.21s-.17.11-.22.16a49.11,49.11,0,0,0-3.73,4.15h0a2.8,2.8,0,0,1-.67.66A1.52,1.52,0,0,1,521.81,440.3Zm-.65-.56.33,0a1.61,1.61,0,0,0,.87-.11,2.33,2.33,0,0,0,.53-.55h0a50.14,50.14,0,0,1,3.77-4.19.87.87,0,0,1,.6-.32.9.9,0,0,1,.66.42l2.62,3.34a1.93,1.93,0,0,0,2.1,1.09l2.14-.1a.33.33,0,0,0,.11,0,.46.46,0,0,0-.12-.25c-1.51-1.8-3.18-3.55-4.79-5.23-.77-.8-1.56-1.63-2.32-2.45l-.08-.08-.12.09a51.51,51.51,0,0,0-4.33,4c-.75.79-1.49,1.62-2.21,2.42-.38.42-.75.85-1.14,1.26s-.3.48-.3.49h0a.23.23,0,0,0,.09,0,3.33,3.33,0,0,0,1.31.12h.27Zm13.75-.43Z"/><path d="M526.8,420h-.08a.68.68,0,0,1-.39-.25c-.76-.82-1.55-1.64-2.31-2.44-1.62-1.69-3.3-3.44-4.82-5.26a.73.73,0,0,1-.13-.92h0a.64.64,0,0,1,.5-.22l2.15-.11a3.37,3.37,0,0,1,1.08.08,3.13,3.13,0,0,1,1.46,1.22l2.62,3.35s.17.2.24.2.17-.11.22-.16a47.38,47.38,0,0,0,3.73-4.14v0a3,3,0,0,1,.67-.66,2,2,0,0,1,1.18-.19,2.22,2.22,0,0,0,.36,0h.19a3.76,3.76,0,0,1,1.52.15.59.59,0,0,1,.42.42c.08.35-.19.7-.43,1s-.76.84-1.13,1.26c-.72.8-1.47,1.63-2.23,2.43a49.42,49.42,0,0,1-4.37,4.07A.73.73,0,0,1,526.8,420Zm-7.31-8.54a.46.46,0,0,0,.12.25c1.51,1.8,3.18,3.55,4.79,5.23.77.8,1.56,1.63,2.32,2.45l.08.08.12-.09a49.9,49.9,0,0,0,4.33-4c.75-.79,1.49-1.62,2.21-2.42.38-.42.75-.84,1.14-1.26s.3-.48.3-.48h0a.16.16,0,0,0-.08,0,3.6,3.6,0,0,0-1.32-.12h-.6a1.53,1.53,0,0,0-.87.1,2.33,2.33,0,0,0-.53.55h0a50.14,50.14,0,0,1-3.77,4.19.87.87,0,0,1-.6.32.92.92,0,0,1-.66-.41l-2.62-3.35a1.93,1.93,0,0,0-2.1-1.09l-2.14.1A.33.33,0,0,0,519.49,411.48Zm-.21-.16Z"/><path d="M561.23,404.54h-.07a2.18,2.18,0,0,1-3.49-.15l-2.26,0c1,5,7.6,4.79,8.79.05Z"/><path d="M559.22,398.6a4.26,4.26,0,0,0-3.93,3.79l2.32,0a2.14,2.14,0,0,1,3.77.15l2.85-.12A4.82,4.82,0,0,0,559.22,398.6Z"/><path d="M560.76,397.08c6.88,1.11,6.82,11.23,0,12.4,0,.41,0,.82,0,1.23,8.44-1.24,8.42-13.77-.08-14.87C560.73,396.25,560.74,396.67,560.76,397.08Z"/><path d="M555.13,409.3a7.5,7.5,0,0,0,3.69,1.45c0-.41,0-.82,0-1.23-6.92-.72-6.85-11.47,0-12.45,0-.41,0-.82,0-1.23C552.37,396.47,550.07,405.72,555.13,409.3Z"/><path d="M607.16,401.8v.07a2.18,2.18,0,0,1-.15,3.49c0,.76,0,1.51,0,2.26,5-1,4.79-7.6,0-8.79Z"/><path d="M601.22,403.81a4.25,4.25,0,0,0,3.79,3.93l0-2.32a2.14,2.14,0,0,1,.15-3.77q-.08-1.42-.12-2.85A4.82,4.82,0,0,0,601.22,403.81Z"/><path d="M599.7,402.27c1.11-6.88,11.23-6.82,12.4,0l1.23,0c-1.24-8.44-13.77-8.42-14.87.08Z"/><path d="M611.91,407.9a7.42,7.42,0,0,0,1.46-3.69l-1.23,0c-.72,6.92-11.47,6.85-12.45,0l-1.23.06C599.08,410.66,608.34,413,611.91,407.9Z"/><path d="M564.21,383.34a24.94,24.94,0,0,0,4.47,6.86c1.08,1.05,4.79-5,5.48-6,8.25,8.07,3.68,7.57,9.73-.56q2.73,3.38,5.1,7c.21.32.73.57,1,.21a51.24,51.24,0,0,0,5.31-7,57.72,57.72,0,0,0,6,6.25c.43.38.83,0,1-.41,1.12-2.4,2.8-4.56,4.1-6.88.45-4.41-4.21,4.16-4.81,4.84-9-9-4-9.1-11.94.35-1.48-2.21-3-4.35-4.73-6.43-.57-.71-1.09-.31-1.34.33a21.89,21.89,0,0,0-3.75,5.39c-8.1-8.82-4.07-7.12-10.73.17A25.88,25.88,0,0,1,565.7,382C564.93,380.38,563.75,382.27,564.21,383.34Z"/><path d="M457.4,397.85c.42,1.54,3.3,4.18,5,4.72.71.54,7.12-7.07,7.7-7.43,3.13-2.74-1.75-5.91-4.13-7.46h0c-.2,0-.53.05-3.34,3.14-1.36,1.49-2.76,3.12-3,3.43C458.71,395.24,457.12,396.33,457.4,397.85Zm2.66-3.2a72.6,72.6,0,0,1,5.86-6.3c1.84,1.54,6.38,3.87,3.71,6.36l-6.64,7c-.19.2-.31.29-.48.29-1.43-.48-4.14-3-4.49-4.23S459.34,395.51,460.06,394.65Z"/><path d="M460.06,394.65a72.6,72.6,0,0,1,5.86-6.3c1.84,1.54,6.38,3.87,3.71,6.36l-6.64,7c-.19.2-.31.29-.48.29-1.43-.48-4.14-3-4.49-4.23S459.34,395.51,460.06,394.65Z"/><path d="M465.92,406.21c.15-.12,5.9,5.2,6.21,5.44.59.75,1.73.37,2.36-.38,1.08-1.15,2.44-2.34,3-3.85-1.82-2.82-4.76-5.05-7.12-7.47a2.08,2.08,0,0,0-1.43-.71,3.61,3.61,0,0,0-2.16,1.18h0C463.7,403.25,462.94,404.45,465.92,406.21Zm1.25-5.33a4.28,4.28,0,0,1,1.47-1c1.47-.24,6.78,6.13,8.19,7.48-.81,1.37-2.34,3.45-3.78,4.06-.16.3-5.74-5.12-6-5.21-.63-.56-2.33-1.34-2.43-2.1C464.6,403.82,464.89,403,467.17,400.88Z"/><path d="M467.17,400.88a4.28,4.28,0,0,1,1.47-1c1.47-.24,6.78,6.13,8.19,7.48-.81,1.37-2.34,3.45-3.78,4.06-.16.3-5.74-5.12-6-5.21-.63-.56-2.33-1.34-2.43-2.1C464.6,403.82,464.89,403,467.17,400.88Z"/><path d="M479,405.9c.2,0,.53,0,3.35-3.14,1.36-1.5,2.76-3.12,3-3.44.85-1,2.45-2.07,2.17-3.59s-3.48-4.43-5.11-4.73c-.45-.55-7.16,7.19-7.58,7.43C471.72,401.15,476.61,404.42,479,405.9Zm-3.71-7c.23-.05,7-7.7,7.18-7.24,1.51.65,4,2.85,4.44,4.22.22,1.15-1.33,2.21-2,3.07a71.17,71.17,0,0,1-5.86,6.3C477.17,403.69,472.64,401.35,475.3,398.87Z"/><path d="M475.3,398.87c.23-.05,7-7.7,7.18-7.24,1.51.65,4,2.85,4.44,4.22.22,1.15-1.33,2.21-2,3.07a71.17,71.17,0,0,1-5.86,6.3C477.17,403.69,472.64,401.35,475.3,398.87Z"/><path d="M467.71,386.71c1.58,1.4,7,8.25,8.74,7.57,1.89-.65,4.8-4.14,4.48-4.91-.08-.82-1.09-1.47-1.91-2-1.3-.6-5.72-5.62-7.14-5.88C471,381.32,466.53,386,467.71,386.71Zm4.67-4.31,5.5,4.93c.63.57,2.32,1.34,2.42,2.1v.05c0,.35-.35,1.21-2.54,3.21a3.24,3.24,0,0,1-1.73,1,1.54,1.54,0,0,1-1-.54c-2.37-2.22-4.75-4.54-6.91-7C468.51,385.38,471.51,381.15,472.38,382.4Z"/><path d="M468.11,386.18c.4-.8,3.4-5,4.27-3.78l5.5,4.93c.63.57,2.32,1.34,2.42,2.1v.05c0,.35-.35,1.21-2.54,3.21a3.24,3.24,0,0,1-1.73,1,1.54,1.54,0,0,1-1-.54C472.65,390.94,470.27,388.62,468.11,386.18Z"/><path d="M416.53,404.68a52.84,52.84,0,0,0,4.24,3.71,21.16,21.16,0,0,1,4.28,4.12c1.48,1.89,4.32-2.51,5.23-3.87h0c1-1.36-1.82-2.8-2.53-3.8a53.76,53.76,0,0,1-4.86-5.14,1.68,1.68,0,0,0-1.3-.83c-2.18.54-3.64,2.62-5.18,4.13A1.11,1.11,0,0,0,416.53,404.68Zm.35-1.27c1-.87,4.47-5.36,5.52-3.31a98.52,98.52,0,0,0,7.24,7.49.51.51,0,0,1,.23.38.69.69,0,0,1-.14.35,11,11,0,0,1-3.79,4.08c-2.59-3-6.07-5.35-9-8.17C416.67,403.94,416.57,403.71,416.88,403.41Z"/><path d="M416.88,403.41c1-.87,4.47-5.36,5.52-3.31a98.52,98.52,0,0,0,7.24,7.49.51.51,0,0,1,.23.38.69.69,0,0,1-.14.35,11,11,0,0,1-3.79,4.08c-2.59-3-6.07-5.35-9-8.17C416.67,403.94,416.57,403.71,416.88,403.41Z"/><path d="M410.36,398.6c1,.89,3.32,4.33,4.47,4.15.94-.41,1.62-1.62,2.42-2.28a52.66,52.66,0,0,0,4.05-4.58c2.32-2.27.34-3.21-1.62-4.66-.59-.4-.84-1.51-1.69-1.53a2.55,2.55,0,0,0-1.44.82c-2.06,1.93-4.24,4-6.24,6.22A1.24,1.24,0,0,0,410.36,398.6ZM417,391c.57-.47,1-1.12,1.6-.05.83,1.26,2.52,1.71,3.2,3.07a4.32,4.32,0,0,1-1,1.48,72.15,72.15,0,0,1-5.45,6c-.78,1.2-1.25.27-2-.52-.89-1.16-2.29-2.1-2.89-3.4A64.35,64.35,0,0,1,417,391Z"/><path d="M410.51,397.59A64.35,64.35,0,0,1,417,391c.57-.47,1-1.12,1.6-.05.83,1.26,2.52,1.71,3.2,3.07a4.32,4.32,0,0,1-1,1.48,72.15,72.15,0,0,1-5.45,6c-.78,1.2-1.25.27-2-.52C412.51,399.83,411.11,398.89,410.51,397.59Z"/><path d="M427.73,401.37c.84,1.44,2.9,4.69,4.9,4,.95-.41,1.59-1.57,2.25-2.35,1.65-1.91,3.42-3.76,5.24-5.5a.32.32,0,0,0,0-.42c-1.2-1.41-2.93-4-4.6-4.69-.32-.34-7.09,6.64-7.42,6.83a1.61,1.61,0,0,0-.65,1.3A1.31,1.31,0,0,0,427.73,401.37Zm.84-1.65,6.72-6.47c.44-.86,3.74,3.53,4.19,4a64,64,0,0,0-5.61,6,4.63,4.63,0,0,1-1.49,1.5,1,1,0,0,1-.25,0c-1.5,0-3.15-2.58-3.84-3.77A.93.93,0,0,1,428.57,399.72Z"/><path d="M428.57,399.72l6.72-6.47c.44-.86,3.74,3.53,4.19,4a64,64,0,0,0-5.61,6,4.63,4.63,0,0,1-1.49,1.5,1,1,0,0,1-.25,0c-1.5,0-3.15-2.58-3.84-3.77A.93.93,0,0,1,428.57,399.72Z"/><path d="M420.71,389.88a70.71,70.71,0,0,1,6.17,5.69,1.85,1.85,0,0,0,1.43.76,1.33,1.33,0,0,0,1.05-.51c6.62-6.07,5.81-4.71-.65-10-1.29-1.17-2.22-3-4-3.55-.4-.2-3.88,3.82-4.22,4A2.05,2.05,0,0,0,420.71,389.88Zm.28-3.1,3.62-3.73s.11-.11.14-.11c1.42.7,2.35,2.26,3.52,3.36,6,5.12,7.07,3.13.67,9.05-.56.61-1.06.38-1.6-.22a76.73,76.73,0,0,0-6.22-5.74C420,388.64,420,387.64,421,386.78Z"/><path d="M421,386.78l3.62-3.73s.11-.11.14-.11c1.42.7,2.35,2.26,3.52,3.36,6,5.12,7.07,3.13.67,9.05-.56.61-1.06.38-1.6-.22a76.73,76.73,0,0,0-6.22-5.74C420,388.64,420,387.64,421,386.78Z"/><path d="M431.48,414.47c5.81-4.74,11.81-9.68,17.74-14.2,5.62,4.32,11.09,9.17,16.68,13.63.51.41,1.22.67,1.38,1.36,0,.95-1.2,1-1.85.65-2.17-.92-3.69-2.87-5.33-4.56a51.5,51.5,0,0,0-10.62-8c-4.82,2.39-8.77,6.48-13.33,9.38-1.44,1-3.52,2.74-5.17,3.35C429.35,416.39,430.83,414.78,431.48,414.47Z"/><path d="M449.08,406.91c.72,0,1.18.65,1.65,1.06l4.21,3.48,5.73,4.72a.32.32,0,0,1-.41.48c-2.84-2.34-5.7-4.68-8.53-7a28.53,28.53,0,0,0-2.55-2.07c-.42-.1-1.07.57-1.41.93a59.77,59.77,0,0,1-7,5.74c-.69.31-3.11,2.79-3.53,2.28s2.67-2.25,3.15-2.79a62,62,0,0,0,6.7-5.48C447.64,407.72,448.3,406.92,449.08,406.91Z"/><path d="M444.5,416.19c-1.9-.9,1.12-2.84,1.86-3.65a13.14,13.14,0,0,0,2.35-2.6c1-.75,2.47,1.67,2.88,2.25,3,3.55,3.35,4.37-1.61,4.16A30.19,30.19,0,0,1,444.5,416.19Z"/><path d="M450.41,392.53a2,2,0,0,1-3,0c-5.64-4.43-11.89-8.37-17.22-13.06-.08-.51.62-.81,1.17-.81,2,0,3.6,1.66,5,3.1a49,49,0,0,0,7.9,6.65c1.48.94,3.05,2.08,4.83,2.35,4.85-3.49,9.47-7.53,14.6-10.77.43-.3,2.9-2.3,3.39-2,.78.53-1.48,2.06-1.74,2.27Z"/><path d="M459.69,377.77c2-.1-9.58,8.57-9.25,8.66a3.45,3.45,0,0,1-4.93.21c-3.3-2.29-6.08-5.52-8.89-8.3-.28-.29.17-.74.45-.44C450.42,391.57,446.4,387.91,459.69,377.77Z"/><path d="M449,383.75a1.28,1.28,0,0,1-2,.37,17.23,17.23,0,0,1-2.68-2.52c-.63-.79-2.33-2.56-1.29-3.6s3.1,0,4.26,0C455,377.62,452.67,379.33,449,383.75Z"/><path d="M530.53,391.08a12.76,12.76,0,0,1,12.74-12.74.68.68,0,0,1,0,1.36,11.39,11.39,0,0,0-11.38,11.38,11.56,11.56,0,0,0,7.5,10.71,11.36,11.36,0,0,0,3.88.68.68.68,0,1,1,0,1.35,12.79,12.79,0,0,1-4.34-.76A13,13,0,0,1,530.53,391.08Z"/><path d="M536.6,390.74a6,6,0,0,1,.08-1,6.31,6.31,0,0,1,2.36-3.91,7,7,0,0,1,9.44,1.11,6.85,6.85,0,0,1,.87,1.32,6.36,6.36,0,0,1-8.94,8.63,8,8,0,0,1-3-3A6.67,6.67,0,0,1,536.6,390.74Zm12.77.54a6.1,6.1,0,0,0-.63-2.68h0a5.49,5.49,0,0,0-.78-1.18,6.29,6.29,0,0,0-8.51-1,5.57,5.57,0,0,0-2.1,3.47,5.81,5.81,0,0,0,.69,3.73,7.31,7.31,0,0,0,2.71,2.73,6,6,0,0,0,3.87.93c2.68-.39,4.51-3.07,4.72-5.44A4.93,4.93,0,0,0,549.37,391.28Zm-.33-2.83Z"/><path d="M546.21,388.3a4.1,4.1,0,0,0-5.3-.18,4,4,0,0,0-.26,5.92,4,4,0,0,0,6.7-3.62A3.76,3.76,0,0,0,546.21,388.3Z"/><path d="M510.34,403.14a.67.67,0,0,1,.68-.67,11.3,11.3,0,0,0,3.87-.68,11.57,11.57,0,0,0,7.51-10.71A11.4,11.4,0,0,0,511,379.7a.68.68,0,0,1,0-1.36,12.75,12.75,0,0,1,12.73,12.74,12.94,12.94,0,0,1-8.4,12,12.69,12.69,0,0,1-4.33.76A.67.67,0,0,1,510.34,403.14Z"/><path d="M504.35,391.23a8.6,8.6,0,0,1,.27-2.11A6.5,6.5,0,0,1,517,388.9h0a6.29,6.29,0,0,1,.32,1.55,7,7,0,0,1-5.89,7.45,6.23,6.23,0,0,1-4.43-1.09,6.48,6.48,0,0,1-2.4-3.48A7.66,7.66,0,0,1,504.35,391.23Zm12.36-.22c0-.17,0-.34,0-.51a6,6,0,0,0-.29-1.39h0a6.12,6.12,0,0,0-1.86-2.71c-1.83-1.52-5-2.12-7.18-.5a6,6,0,0,0-2.08,3.39,7.28,7.28,0,0,0,0,3.85,5.73,5.73,0,0,0,2.15,3.12,5.55,5.55,0,0,0,3.94,1A6.28,6.28,0,0,0,516.71,391Zm0-2h0Z"/><path d="M515.17,390.77a4.12,4.12,0,0,1-3.62,3.88,4,4,0,0,1-4.38-4,4,4,0,0,1,7.31-2.18A3.78,3.78,0,0,1,515.17,390.77Z"/><path d="M531.69,390.23l-2.07,0-8.34,0a3.37,3.37,0,0,0-1.27.18c-.38.17-.66.55-.5.89s.85.48,1.39.48l12.65.1a1.65,1.65,0,0,0,1.2-.3c.73-.77-.28-1.35-1-1.38S532.36,390.23,531.69,390.23Z"/><path d="M368.49,397.43a.61.61,0,0,1-.61-.61,17.05,17.05,0,0,0-1-5.88,17.53,17.53,0,0,0-16.23-11.38,17.28,17.28,0,0,0-17.26,17.26.61.61,0,0,1-.61.61.61.61,0,0,1-.61-.61,18.5,18.5,0,0,1,18.48-18.47A18.76,18.76,0,0,1,368,390.53a18.43,18.43,0,0,1,1.1,6.29A.6.6,0,0,1,368.49,397.43Z"/><path d="M350.67,391.18a6.1,6.1,0,0,1,5.75,5.37,5.9,5.9,0,0,1-5.94,6.48,5.94,5.94,0,0,1-3.23-10.82A5.57,5.57,0,0,1,350.67,391.18Z"/><path d="M350.84,406.5a12.62,12.62,0,0,1-3.08-.39,9.63,9.63,0,0,1-5.47-3.39,8.56,8.56,0,0,1-1.55-5.93,10.45,10.45,0,0,1,2.33-5.7,9.72,9.72,0,0,1,4.37-3h0a9.28,9.28,0,0,1,2.26-.47,10.13,10.13,0,0,1,10.83,8.56A9.12,9.12,0,0,1,359,402.6a9.5,9.5,0,0,1-5.05,3.48A11.14,11.14,0,0,1,350.84,406.5Zm-3.2-17.84a9.06,9.06,0,0,0-4.1,2.82c-2.31,2.76-3.22,7.58-.76,10.88a9.08,9.08,0,0,0,5.13,3.16,11.14,11.14,0,0,0,5.82,0,8.9,8.9,0,0,0,4.73-3.26,8.44,8.44,0,0,0,1.46-6,9.51,9.51,0,0,0-10.18-8,8.93,8.93,0,0,0-2.1.44Z"/><path d="M442.67,430c1.29.87,2.61,2.14.87,3.37-1.27,1.05-2.72,2.34-4,3.3q-2.87,2.1-5.8,4.06c-.44.4-1,0-1.05-.52-1.16-3.51,10.54-7.49,7.31-8.93-1.64-1.08-9.1-5.61-7.08-7.78.44-.32.89.06,1.28.31A94.27,94.27,0,0,1,442.67,430Z"/><path d="M453,430c1.29.87,2.6,2.14.86,3.37-1.27,1.05-2.71,2.34-4,3.3q-2.85,2.1-5.79,4.06c-.45.4-1,0-1.05-.52-1.17-3.51,10.53-7.49,7.31-8.93-1.64-1.08-9.1-5.61-7.09-7.78.45-.32.89.06,1.29.31A94.27,94.27,0,0,1,453,430Z"/><path d="M463.24,430c1.29.87,2.61,2.14.86,3.37-1.26,1.05-2.71,2.34-4,3.3q-2.86,2.1-5.8,4.06c-.44.4-1,0-1-.52-1.16-3.51,10.54-7.49,7.31-8.93-1.64-1.08-9.1-5.61-7.08-7.78.44-.32.88.06,1.28.31A94.27,94.27,0,0,1,463.24,430Z"/><path class="cls-1" d="M398.57,413c-5.72.22-11.45.11-17.17.1-1.71,0-3.42,0-5.11-.1q2.7,4.49,5.56,8.87H393Q395.86,417.49,398.57,413Z"/><path class="cls-1" d="M388.05,439.3q5.46-8,10.47-16.29a41,41,0,0,0-4.84.14c-2.15,2.6-3.82,5.7-6.07,8.28-.53.67-.8,0-1-.55a15.83,15.83,0,0,0-2.41-3.56c-3.37-4.57-1.86-4.42-7.85-4.33,3.53,5.63,6.94,11.45,10.82,16.81C387.65,440.17,387.75,439.75,388.05,439.3Z"/><path class="cls-5" d="M393.78,432.76q3.15-4.72,6-9.61c.15-.26.3-.59.13-.84-1.65-.64-3.7-.35-5.48-.47q2.67-4.29,5.36-8.58c.58-.72-.18-1.28-1-1.23q-11.42-.25-22.83,0c-.51,0-1.18.17-1.2.68a44.35,44.35,0,0,0,2.68,4.52q1.46,2.29,2.89,4.61c-1.78.15-3.87-.23-5.48.52-.28.35,0,.86.22,1.24l11.8,17.84C387.77,442.74,392.84,433.73,393.78,432.76Zm-11.93-10.89q-2.87-4.38-5.56-8.87c1.69.13,3.4.1,5.11.1,5.72,0,11.45.12,17.17-.1q-2.7,4.49-5.56,8.87Zm5.31,17.93c-3.88-5.36-7.29-11.18-10.82-16.81,6-.09,4.48-.24,7.85,4.33a15.83,15.83,0,0,1,2.41,3.56c.21.52.48,1.22,1,.55,2.25-2.58,3.92-5.68,6.07-8.28a41,41,0,0,1,4.84-.14q-5,8.28-10.47,16.29C387.75,439.75,387.65,440.17,387.16,439.8Z"/><path class="cls-1" d="M379,392.79c.52,0,1,0,1.6,0,.46-.51,2.65-3.58,4.43-6.06l2.15-3a.32.32,0,0,1,.28-.13.3.3,0,0,1,.26.17c.47.89,2.56,3.6,3.94,5.39l.75,1c.07.09.21.31.41.6a15.84,15.84,0,0,0,1.71,2.34c1.08.07,2,.11,3,.09-2.17-3.43-7.31-10.85-9.9-14.07-1.7,2.19-3.44,4.59-5.13,6.91s-3.37,4.63-5,6.79C377.88,392.81,378.41,392.8,379,392.79Z"/><path class="cls-1" d="M387.25,389.52c-2.59,3.23-7.74,10.66-9.91,14.08a8.27,8.27,0,0,0,3-.19,102.76,102.76,0,0,0,6.76-9.21.32.32,0,0,1,.28-.17.33.33,0,0,1,.28.16,87.39,87.39,0,0,0,6.07,9c.55,0,1.16,0,1.74,0s1.37,0,1.92,0c-1.67-2.16-3.38-4.51-5-6.78S389,391.71,387.25,389.52Z"/><path d="M387.6,401c-1.88.15-3.64,2.47-2.64,4.13a2.65,2.65,0,0,0,4.81.22C390.73,403.68,389.84,400.81,387.6,401Z"/><path d="M392.9,396.06c-1.78-2.44-3.61-5-5.4-7.24a.31.31,0,0,0-.24-.13.33.33,0,0,0-.25.12c-2.78,3.39-8.66,12-10.49,14.91a.31.31,0,0,0,0,.31.3.3,0,0,0,.26.17l.38,0a8.83,8.83,0,0,0,3.48-.23c.62-.26,5.47-7,6.77-9,1.18,2,2.83,4.46,3.52,5.46,2.38,3.44,2.55,3.44,2.73,3.43h1.85a25.13,25.13,0,0,0,2.57-.05.32.32,0,0,0,.25-.2.28.28,0,0,0,0-.31C396.5,401,394.67,398.5,392.9,396.06Zm2.6,7.17c-.58,0-1.19,0-1.74,0a87.39,87.39,0,0,1-6.07-9,.33.33,0,0,0-.28-.16.32.32,0,0,0-.28.17,102.76,102.76,0,0,1-6.76,9.21,8.27,8.27,0,0,1-3,.19c2.17-3.42,7.32-10.85,9.91-14.08,1.7,2.19,3.44,4.59,5.13,6.92s3.37,4.62,5,6.78C396.87,403.24,396.2,403.24,395.5,403.23Z"/><path d="M376.75,393.37a17.4,17.4,0,0,0,2.23.06c.55,0,1.11,0,1.69,0,.28,0,.31,0,4.85-6.33l1.86-2.61c.74,1.17,2.46,3.38,3.75,5.06.28.35.53.68.75,1l.37.56c1.34,2,1.8,2.6,2.17,2.62a29.51,29.51,0,0,0,3.63.07.32.32,0,0,0,.26-.17.28.28,0,0,0,0-.15.37.37,0,0,0-.05-.17c-1.83-2.94-7.71-11.52-10.49-14.9a.3.3,0,0,0-.25-.12.33.33,0,0,0-.24.12c-1.78,2.29-3.62,4.81-5.4,7.25s-3.6,5-5.38,7.23a.32.32,0,0,0,.21.51Zm5.69-7.37c1.69-2.32,3.43-4.72,5.13-6.91,2.59,3.22,7.73,10.64,9.9,14.07-1,0-1.89,0-3-.09a15.84,15.84,0,0,1-1.71-2.34c-.2-.29-.34-.51-.41-.6l-.75-1c-1.38-1.79-3.47-4.5-3.94-5.39a.3.3,0,0,0-.26-.17.32.32,0,0,0-.28.13l-2.15,3c-1.78,2.48-4,5.55-4.43,6.06-.55,0-1.08,0-1.6,0s-1.09,0-1.57,0C379.07,390.63,380.78,388.28,382.44,386Z"/><path d="M351.12,434.16a3.51,3.51,0,0,1,3,1.7,5,5,0,0,1,.15,5,4.24,4.24,0,0,1-4,2.21,4,4,0,0,1-3.5-2.53,3.68,3.68,0,0,1,0-3.58,5.17,5.17,0,0,1,4-2.79Zm-.55,7.66a3,3,0,0,0,2.62-1.59h0a3.76,3.76,0,0,0-.13-3.7,2.23,2.23,0,0,0-2.14-1.11,3.93,3.93,0,0,0-2.95,2.12,2.45,2.45,0,0,0-.05,2.39.36.36,0,0,1,0,.09,2.8,2.8,0,0,0,2.44,1.79Zm3.17-1.27h0Z"/><path d="M350.62,412.08c4.7,8.13,9.34,17.68,14,25.81-1.34.22-3.85,0-5.8.09-.25,0-5.69-9.41-8.24-15.57-.76,2-8.44,15.45-9.13,15.83-1.28.73-3.48.45-4.91.35C339.11,433.08,347.1,417.87,350.62,412.08Z"/><path d="M578,430.2v0a.52.52,0,0,0-.35-.12c-.68,0-1.14.55-1.45,1.07-.46.73-1,1.6-1.6,2.44a1.18,1.18,0,0,1-.57.5c-.57.17-1.14-.79-1.78-2-.13-.24-.24-.44-.31-.54-.72-1-1.48-1.43-2.31-1.25-.15,0-.26.1-.27.16s.07.18.12.24c1.33,1.7,2.71,3.39,4.11,5,.11.13.26.28.38.28h0c.06,0,.12-.1.19-.19s.26-.33.5-.62c.54-.68,1.46-1.8,2.18-2.83,1.17-1.66,1.16-2.08,1.13-2.17Z"/><path d="M586.26,418.05c-.61,0-1,.64-1.44,1.2l-.24.34a27.65,27.65,0,0,0-1.56,2.33.51.51,0,0,1-.24.22.45.45,0,0,1-.55-.19,7,7,0,0,1-.49-.67c-.73-1-2.23-3.2-3.19-3.2h0a.62.62,0,0,0-.51.34c0,.08.18.34.27.44l.11.13c.48.61,1,1.23,1.46,1.83s1,1.21,1.5,1.8l.26.29c.3.33.76.83,1,1.14l0,0,0,0,4-5.73a.2.2,0,0,0,.06-.16A1.18,1.18,0,0,0,586.26,418.05Z"/><path d="M587.44,431.79c.9,1.33,1.87,2.68,2.87,4,.06.09.12.17.19.19s.3-.12.42-.27c1.39-1.63,2.78-3.32,4.11-5,0-.06.13-.17.12-.24s-.12-.13-.27-.16a1.74,1.74,0,0,0-1.36.28,3.67,3.67,0,0,0-.95,1.18c-.05.09-.1.18-.16.27a14,14,0,0,1-1.33,1.81.67.67,0,0,1-.48.27h0a.6.6,0,0,1-.46-.31l-.71-1c-.49-.66-1-1.35-1.44-2.06s-.69-.81-1-.72a1.28,1.28,0,0,1-.27.05.59.59,0,0,0-.26.06l0,0c-.05.08.11.29.19.39l.06.09.47.69Z"/><path d="M610.47,438.9c-.53-.91-1.25-1.67-1.79-2.56s-1.2-2-1.8-3q-2.05-3.46-4.1-6.93-4.11-6.93-8.2-13.86l-5-8.46c-1.62-2.73-3.24-5.47-5-8.1-.47-.68-1.21-1.45-2-1.24-.77-.21-1.51.56-2,1.24-1.79,2.63-3.41,5.37-5,8.1s-3.34,5.64-5,8.46q-4.11,6.93-8.2,13.86l-4.1,6.93c-.6,1-1.19,2-1.8,3s-1.26,1.65-1.8,2.56c-.16.27-.28.65-.12.88a.32.32,0,0,0,.1.1.63.63,0,0,0,.47.05c.88-.2,1.37-1.12,1.78-1.93,1.4-2.81,3.18-5.42,4.79-8.12a86,86,0,0,1,4.76-7.34c2.74-3.67,4-6.41,6.14-10.19,2.58-3.63,5.19-7.3,7.4-11.16.39-.7,1.45-3.5,2.59-3.84,1.14.34,2.2,3.14,2.6,3.84,2.21,3.86,4.81,7.53,7.4,11.16,2.17,3.78,3.39,6.52,6.13,10.19a86.11,86.11,0,0,1,4.77,7.34c1.6,2.7,3.39,5.31,4.79,8.12.4.81.89,1.73,1.77,1.93a.66.66,0,0,0,.48-.05.47.47,0,0,0,.1-.1C610.76,439.55,610.63,439.17,610.47,438.9Z"/><path d="M584.33,404.19l-1.09-1.56c-.2-.28-.47-.68-.86-.5a1.28,1.28,0,0,0-.49.49c-2.14,3.15-4.28,6.29-6.38,9.47-.42.63-2,2.41-.31,2.48q7,.27,14.1.2c1.69,0-.26-3.27-.61-3.87C587.37,408.59,585.85,406.38,584.33,404.19Z"/><path d="M565.8,426.5c-.21,0-.49.05-.51.25s.12.25.25.33c1.83,1.1,4,.61,6,.55,2.49-.07,5,.18,7.47.27,3.45.13,6.92,0,10.37-.1,1.73,0,3.46-.06,5.19,0a8.73,8.73,0,0,0,3.29-.52c1.22-.49-.66-.82-1-.85-.64,0-1.29-.07-1.93-.08-4-.11-8.15.2-12.19.25q-7.46.09-14.92,0Z"/><path d="M601.89,438.12c-7.07.09-14.14.22-21.22.27q-5.29,0-10.61,0c-3.43,0-6.91-.3-10.35-.12-.81,0-1.67.42-1.78.78s.19.5,1.05.64a24.57,24.57,0,0,0,3.1.15c2.92.13,5.84.1,8.77.1,3.6,0,7.2-.09,10.8-.2,7.19-.2,14.4-.47,21.59-.18.64,0,3.62.07,3.39-.8S602.69,438.11,601.89,438.12Z"/><path d="M587.88,424a.19.19,0,0,0,0,.09.77.77,0,0,0,.48.18,1.92,1.92,0,0,0,1.63-1.16c.51-.83,1-1.64,1.59-2.43a.93.93,0,0,1,.47-.43c.6-.19,1.57,2,1.87,2.42a2.49,2.49,0,0,0,2.52,1.33c.18,0,.39-.13.41-.32a.51.51,0,0,0-.16-.39q-2-2.55-4.11-5c-.16-.19-.39-.4-.63-.32a.66.66,0,0,0-.29.26C591.26,418.82,587.56,423.11,587.88,424Z"/><path d="M586.25,417.66h0c-.81,0-1.33.77-1.75,1.37l-.23.33a26.79,26.79,0,0,0-1.58,2.36.13.13,0,0,1-.07.06h0l-.09-.09c-.09-.11-.25-.34-.46-.64-1.15-1.64-2.45-3.39-3.53-3.37a1,1,0,0,0-.84.52c-.21.33.11.69.31.91l.1.11c.48.61,1,1.23,1.46,1.83s1,1.22,1.5,1.81l.27.3,1,1.13a.42.42,0,0,0,.35.16.46.46,0,0,0,.34-.19l4-5.73a.56.56,0,0,0,.09-.56h0C587,417.67,586.27,417.66,586.25,417.66Zm.47.66-4,5.73,0,0,0,0c-.25-.31-.71-.81-1-1.14l-.26-.29c-.51-.59-1-1.2-1.5-1.8s-1-1.22-1.46-1.83l-.11-.13c-.09-.1-.32-.36-.27-.44a.62.62,0,0,1,.51-.34h0c1,0,2.46,2.16,3.19,3.2a7,7,0,0,0,.49.67.45.45,0,0,0,.55.19.51.51,0,0,0,.24-.22,27.65,27.65,0,0,1,1.56-2.33l.24-.34c.39-.56.83-1.19,1.44-1.2a1.18,1.18,0,0,1,.52.11A.2.2,0,0,1,586.72,418.32Z"/><path d="M572.76,418c-.24-.08-.47.13-.63.32q-2.1,2.48-4.11,5a.51.51,0,0,0-.16.39c0,.19.23.28.41.32a1.91,1.91,0,0,0,1.52-.31,4.73,4.73,0,0,0,1.16-1.5,14.49,14.49,0,0,1,1.32-1.79c.23-.27.45-.27.65,0,.72,1,1.49,2,2.15,3,.24.38.67,1,1.19.8.18-.05.43,0,.58-.13a.22.22,0,0,0,.08-.09c.15-.22-.13-.51-.26-.69-.25-.36-.49-.74-.74-1.1-.93-1.36-1.89-2.71-2.87-4A.61.61,0,0,0,572.76,418Z"/><path d="M563.87,431.4c-.51.59-1,1.19-1.5,1.8L560.91,435c-.14.18-.56.54-.39.79s.73.2,1,.19a1.82,1.82,0,0,0,.86-.17,1.85,1.85,0,0,0,.58-.66,24.54,24.54,0,0,1,2.1-2.87c.08-.09.17-.19.32-.13a.36.36,0,0,1,.16.14,22.82,22.82,0,0,0,2.16,3,3.8,3.8,0,0,0,.71.68,1.44,1.44,0,0,0,.8.29.42.42,0,0,0,.42-.21.36.36,0,0,0-.07-.37l-4-5.73a.23.23,0,0,0-.38,0C564.77,430.41,564,431.28,563.87,431.4Z"/><path d="M595.81,436a1.79,1.79,0,0,0,.86-.17,1.85,1.85,0,0,0,.58-.66,24.54,24.54,0,0,1,2.1-2.87c.08-.09.18-.19.32-.13a.36.36,0,0,1,.16.14,22.82,22.82,0,0,0,2.16,3,3.8,3.8,0,0,0,.71.68,1.44,1.44,0,0,0,.8.29.42.42,0,0,0,.42-.21.36.36,0,0,0-.07-.37l-4-5.73a.23.23,0,0,0-.38,0c-.38.44-1.18,1.31-1.28,1.43-.51.59-1,1.19-1.5,1.8L595.22,435c-.14.18-.56.54-.39.79S595.56,436,595.81,436Z"/><path d="M578.33,430.07a.5.5,0,0,0-.11-.17.88.88,0,0,0-.6-.23h-.08a2.2,2.2,0,0,0-1.73,1.25c-.45.73-1,1.59-1.58,2.42a.83.83,0,0,1-.36.36s-.18,0-.58-.52a11.61,11.61,0,0,1-.75-1.26,6,6,0,0,0-.33-.57c-.83-1.17-1.72-1.63-2.72-1.41a.65.65,0,0,0-.57.48.71.71,0,0,0,.21.54c1.33,1.7,2.71,3.39,4.11,5,.11.12.44.51.84.38a.74.74,0,0,0,.38-.33l.49-.61C577.16,432.72,578.57,430.77,578.33,430.07Zm-1.5,2.3c-.72,1-1.64,2.15-2.18,2.83-.24.29-.42.51-.5.62s-.13.17-.19.19h0c-.12,0-.27-.15-.38-.28-1.4-1.63-2.78-3.32-4.11-5,0-.06-.13-.17-.12-.24s.12-.13.27-.16c.83-.18,1.59.23,2.31,1.25.07.1.18.3.31.54.64,1.17,1.21,2.13,1.78,2a1.18,1.18,0,0,0,.57-.5c.59-.84,1.14-1.71,1.6-2.44.31-.52.77-1.11,1.45-1.07a.52.52,0,0,1,.35.12v0h0C578,430.29,578,430.71,576.83,432.37Z"/><path d="M578.36,436.29c.85,0,1.37-1,1.83-1.62a26.58,26.58,0,0,0,1.56-2.35.36.36,0,0,1,.16-.14c.15-.06.24,0,.32.13.6.71,3.34,5.37,4.53,3.51.16-.25-.26-.61-.4-.79l-1.46-1.83q-.74-.92-1.5-1.8c-.1-.12-.9-1-1.28-1.43a.23.23,0,0,0-.38,0l-4,5.73a.36.36,0,0,0-.07.37C577.71,436.21,578.15,436.29,578.36,436.29Z"/><path d="M587.12,432c.9,1.33,1.87,2.69,2.87,4a.81.81,0,0,0,.39.33c.4.13.73-.26.84-.38,1.39-1.65,2.78-3.34,4.11-5a.71.71,0,0,0,.21-.54.65.65,0,0,0-.57-.48,2.18,2.18,0,0,0-1.68.34,4.1,4.1,0,0,0-1,1.3l-.16.26a14.06,14.06,0,0,1-1.3,1.77.34.34,0,0,1-.18.13s-.11-.06-.17-.14c-.23-.33-.47-.66-.71-1-.48-.66-1-1.34-1.43-2-.15-.24-.58-.92-1.17-.92a1,1,0,0,0-.24,0,.54.54,0,0,1-.19,0,1,1,0,0,0-.45.14.53.53,0,0,0-.13.13h0c-.19.31.06.64.21.84l.06.07.46.68C586.93,431.73,587,431.87,587.12,432Zm-.49-1.41c-.08-.1-.24-.31-.19-.39l0,0a.59.59,0,0,1,.26-.06,1.28,1.28,0,0,0,.27-.05c.28-.09.6.15,1,.72s.95,1.4,1.44,2.06l.71,1a.6.6,0,0,0,.46.31h0a.67.67,0,0,0,.48-.27,14,14,0,0,0,1.33-1.81c.06-.09.11-.18.16-.27a3.67,3.67,0,0,1,.95-1.18,1.74,1.74,0,0,1,1.36-.28c.15,0,.26.1.27.16s-.08.18-.12.24c-1.33,1.7-2.72,3.39-4.11,5-.12.15-.3.31-.42.27s-.13-.1-.19-.19c-1-1.35-2-2.7-2.87-4l-.28-.41-.47-.69Z"/><path d="M484.1,434.5c-.05,1,2.78,1,2.72,0-.08-2.09,1.23-5.65-2.37-5.51C480.85,429.44,484.12,432.57,484.1,434.5Z"/><path d="M475.52,431.66a13.53,13.53,0,0,1,.5,2.92c-.09,1.19,3.38,1.19,3.31,0,0-2.11,2.41-5-1.26-5.8C475.52,428.58,474.7,429.92,475.52,431.66Z"/><path d="M469.48,434.57c.1.86,3.36.87,3.2-.24-.38-2.09.77-5.48-2.71-5.31C466.51,429.43,469.17,432.64,469.48,434.57Z"/><path d="M425.58,430c.58,2.27-.68,5.85,3.18,5,1.94-.53,1-1.64.76-2.35a25.16,25.16,0,0,1-.74-2.63C428.84,428.87,425.46,428.88,425.58,430Z"/><path d="M418,435c2.15,1.32,4.41-.2,3.83-2.63a22.06,22.06,0,0,0-.21-2.92c0-.61-2-.94-2.3-.18C418.9,430.7,416.52,433.76,418,435Z"/><path d="M411,434.64c.11.79,3.4.86,2.88-.44-1-2,1.42-5-2.22-5.21C407.87,429.27,410.09,432.65,411,434.64Z"/></g><path class="cls-2" d="M310.89,335.47a6.3,6.3,0,0,1,1.85,4.46,6.36,6.36,0,0,1-3.69,5.77,5.6,5.6,0,0,1-1.81.5H307v0H295.81V357h-4.19V333.56H306.4a6.3,6.3,0,0,1,4.46,1.85Zm-3.58,6.41a2.14,2.14,0,0,0,1.27-1.95,2.2,2.2,0,0,0-.64-1.54,2.11,2.11,0,0,0-1.51-.6H295.81v4.32h10.62a1.89,1.89,0,0,0,.88-.2Z"/><path class="cls-2" d="M346.41,352.87l2.14,4.19h-4.69l-2.15-4.19-2.24-4.39-.1-.2a4.16,4.16,0,0,0-3.56-2h-4.19v10.79h-4.19V333.6h14.82a6.29,6.29,0,0,1,4.46,1.84,6.38,6.38,0,0,1-1.84,10.26,5.67,5.67,0,0,1-1.81.5Zm-4.16-10.79a2,2,0,0,0,.87-.2,2.15,2.15,0,0,0,1.28-1.95,2.24,2.24,0,0,0-.64-1.54,2.11,2.11,0,0,0-1.51-.6H331.62v4.32Z"/><path class="cls-2" d="M386,345.3a11.74,11.74,0,1,1-11.74-11.74A11.74,11.74,0,0,1,386,345.3Zm-4.19,0a7.55,7.55,0,1,0-7.55,7.54A7.56,7.56,0,0,0,381.79,345.3Z"/><path class="cls-2" d="M423.37,333.56v17.13A6.33,6.33,0,0,1,417,357h-10.8a6.33,6.33,0,0,1-6.34-6.31V346.3h4.19v4.39a2.17,2.17,0,0,0,2.15,2.15H417a2.16,2.16,0,0,0,2.14-2.15V333.56Z"/><path class="cls-2" d="M442.33,339.9v2.18h15.08v4.19H442.33v4.42a2.16,2.16,0,0,0,2.14,2.15H461.6V357H444.47a6.32,6.32,0,0,1-6.3-6.34V339.9a6.32,6.32,0,0,1,6.3-6.34H461.6v4.19H444.47A2.16,2.16,0,0,0,442.33,339.9Z"/><path class="cls-2" d="M478.38,345.3a7.55,7.55,0,0,0,7.54,7.54h11.73V357H485.92a11.74,11.74,0,0,1,0-23.47h11.73v4.19H485.92A7.55,7.55,0,0,0,478.38,345.3Z"/><path class="cls-2" d="M535.85,333.6v4.19h-9.62v19.27H522V337.79h-9.62V333.6Z"/></svg>